<svg width="120" height="120" viewBox="0 0 120 120" fill="none" xmlns="http://www.w3.org/2000/svg">
<path d="M35.708 46.4758H53.0601V47.8551H37.2986V58.2351H52.1203V59.6142H37.2986V71.0105H53.2409V72.3896H35.708V46.4758ZM54.6148 46.4758H56.4584L64.6282 57.8721L72.9788 46.4756L84.3371 32L65.6765 59.0699L75.2925 72.3896H73.3765L64.6282 60.2675L55.8436 72.3896H53.9639L63.6522 59.0697L54.6148 46.4758ZM75.9793 47.8551V46.4756H95.7535V47.8549H86.6435V72.3894H85.0529V47.8551H75.9793ZM14 46.4756H15.9882L43.405 87.5024L32.0751 72.3894L15.6628 48.4357L15.5906 72.3898H14L14 46.4756ZM95.5932 70.594C95.2682 70.594 95.0245 70.3424 95.0245 70.0168C95.0245 69.6916 95.2682 69.4397 95.5932 69.4397C95.922 69.4397 96.1619 69.6914 96.1619 70.0168C96.1619 70.3423 95.922 70.594 95.5932 70.594ZM97.1561 69.0756H98.0073C98.0188 69.5365 98.3554 69.8465 98.8506 69.8465C99.4039 69.8465 99.7172 69.5134 99.7172 68.8897V64.9383H100.584V68.8934C100.584 70.0168 99.9339 70.6639 98.8583 70.6639C97.8485 70.6639 97.1561 70.0362 97.1561 69.0755V69.0756ZM101.717 69.0253H102.576C102.65 69.5559 103.168 69.8929 103.915 69.8929C104.611 69.8929 105.122 69.5326 105.122 69.0368C105.122 68.6108 104.797 68.3551 104.058 68.1808L103.338 68.0065C102.328 67.77 101.868 67.282 101.868 66.4608C101.868 65.4654 102.681 64.8029 103.899 64.8029C105.033 64.8029 105.861 65.4652 105.911 66.4066H105.068C104.986 65.8914 104.538 65.5698 103.888 65.5698C103.203 65.5698 102.747 65.8991 102.747 66.4026C102.747 66.8015 103.04 67.0303 103.768 67.2006L104.383 67.3517C105.528 67.6191 106 68.0839 106 68.9245C106 69.9937 105.172 70.6639 103.849 70.6639C102.611 70.6639 101.779 70.0246 101.717 69.0251V69.0253Z" fill="white"/>
</svg>
