<svg width="120" height="120" viewBox="0 0 120 120" fill="none" xmlns="http://www.w3.org/2000/svg">
<path fill-rule="evenodd" clip-rule="evenodd" d="M91.5784 79.8801L65.0004 23.4379C64.6702 22.7433 64.1583 22.1509 63.5189 21.7234C62.8795 21.2959 62.1364 21.0492 61.3683 21.0094C60.5989 20.9579 59.83 21.1183 59.1453 21.4732C58.4607 21.8282 57.8865 22.364 57.4851 23.0225L28.6583 69.7122C28.22 70.4172 27.9917 71.2326 28.0002 72.0627C28.0088 72.8929 28.2538 73.7033 28.7066 74.3992L42.8003 96.2245C43.3335 97.0438 44.1172 97.6687 45.0347 98.0061C45.9521 98.3435 46.954 98.3752 47.891 98.0966L88.7906 85.9987C89.4064 85.8186 89.9764 85.5085 90.462 85.0892C90.9476 84.6699 91.3375 84.1512 91.6055 83.5682C91.8696 82.9883 92.0042 82.3577 91.9999 81.7205C91.9956 81.0832 91.8524 80.4545 91.5803 79.8782L91.5784 79.8801ZM85.628 82.3009L50.9222 92.5635C49.8635 92.8784 48.8473 91.9607 49.0675 90.8923L61.4669 31.5212C61.6987 30.4104 63.2327 30.2345 63.7176 31.2624L86.6712 80.0057C86.7727 80.2229 86.8259 80.4596 86.827 80.6993C86.8282 80.939 86.7774 81.1762 86.678 81.3944C86.5786 81.6126 86.4331 81.8066 86.2515 81.9631C86.0699 82.1196 85.8565 82.2348 85.626 82.3009H85.628Z" fill="white"/>
</svg>
