<svg width="120" height="120" viewBox="0 0 120 120" fill="none" xmlns="http://www.w3.org/2000/svg">
<path d="M31.8301 62.6162C31.9381 63.6962 32.9281 65.5322 35.7541 65.5322C38.2201 65.5322 39.4081 63.9662 39.4081 62.4362C39.4081 61.0502 38.4721 59.9342 36.6181 59.5382L35.2861 59.2502C34.7641 59.1602 34.4221 58.8722 34.4221 58.4042C34.4221 57.8642 34.9621 57.4682 35.6281 57.4682C36.7081 57.4682 37.1041 58.1702 37.1761 58.7282L39.3001 58.2422C39.1921 57.2342 38.2921 55.5242 35.6101 55.5242C33.5761 55.5242 32.0821 56.9282 32.0821 58.6022C32.0821 59.9162 32.9101 61.0142 34.7281 61.4102L35.9701 61.6982C36.6901 61.8602 36.9781 62.2022 36.9781 62.6162C36.9781 63.1202 36.5821 63.5522 35.7361 63.5522C34.6201 63.5522 34.0801 62.8682 34.0081 62.1122L31.8301 62.6162ZM47.5441 65.2442H49.9741C49.9381 64.9202 49.8841 64.2722 49.8841 63.5342V55.8122H47.3461V61.2842C47.3461 62.3822 46.6981 63.1382 45.5641 63.1382C44.3761 63.1382 43.8361 62.2922 43.8361 61.2482V55.8122H41.2801V61.7702C41.2801 63.8222 42.5761 65.4782 44.8621 65.4782C45.8521 65.4782 46.9501 65.1002 47.4721 64.2182C47.4541 64.6142 47.4901 65.0462 47.5441 65.2442ZM55.1401 68.8802V64.3262C55.6081 64.9562 56.5621 65.4782 57.8581 65.4782C60.522 65.4782 62.304 63.3722 62.304 60.5102C62.304 57.7202 60.72 55.6142 57.9661 55.6142C56.5441 55.6142 55.5001 56.2442 55.0681 56.9822V55.8302H52.6021V68.8802H55.1401ZM59.784 60.5282C59.784 62.2202 58.758 63.1922 57.444 63.1922C56.148 63.1922 55.0861 62.2022 55.0861 60.5282C55.0861 58.8542 56.13 57.8822 57.444 57.8822C58.74 57.8822 59.784 58.8542 59.784 60.5282ZM63.726 62.6702C63.726 64.1462 64.95 65.5142 66.966 65.5142C68.37 65.5142 69.27 64.8662 69.738 64.1102C69.738 64.4702 69.774 64.9922 69.828 65.2442H72.168C72.114 64.9202 72.06 64.2542 72.06 63.7502V59.1062C72.06 57.2162 70.944 55.5242 67.974 55.5242C65.454 55.5242 64.086 57.1442 63.942 58.6202L66.192 59.1062C66.264 58.2782 66.876 57.5762 67.992 57.5762C69.072 57.5762 69.576 58.1342 69.576 58.8002C69.576 59.1242 69.396 59.3942 68.874 59.4662L66.552 59.8082C64.968 60.0422 63.726 60.9782 63.726 62.6702ZM67.506 63.6062C66.678 63.6062 66.282 63.0662 66.282 62.5082C66.282 61.7882 66.804 61.4102 67.452 61.3202L69.576 60.9962V61.4102C69.558 63.1022 68.568 63.6062 67.506 63.6062ZM77.082 65.2442V64.0922C77.586 64.9022 78.576 65.4782 79.872 65.4782C82.554 65.4782 84.318 63.3542 84.318 60.4922C84.318 57.7022 82.734 55.5602 79.98 55.5602C78.576 55.5602 77.55 56.1722 77.136 56.8382V51.3662H74.634V65.2262H77.082V65.2442ZM81.78 60.5102C81.78 62.2382 80.754 63.1922 79.44 63.1922C78.162 63.1922 77.082 62.2202 77.082 60.5102C77.082 58.7822 78.162 57.8462 79.44 57.8462C80.736 57.8462 81.78 58.7822 81.78 60.5102ZM85.758 62.6702C85.758 64.1462 86.982 65.5142 88.998 65.5142C90.402 65.5142 91.302 64.8662 91.77 64.1102C91.77 64.4702 91.806 64.9922 91.86 65.2442H94.2C94.146 64.9202 94.092 64.2542 94.092 63.7502V59.1062C94.092 57.2162 92.976 55.5242 90.006 55.5242C87.486 55.5242 86.118 57.1442 85.974 58.6202L88.224 59.1062C88.296 58.2782 88.908 57.5762 90.024 57.5762C91.104 57.5762 91.608 58.1342 91.608 58.8002C91.608 59.1242 91.428 59.3942 90.906 59.4662L88.584 59.8082C87 60.0422 85.758 60.9782 85.758 62.6702ZM89.52 63.6062C88.692 63.6062 88.296 63.0662 88.296 62.5082C88.296 61.7882 88.818 61.4102 89.466 61.3202L91.59 60.9962V61.4102C91.59 63.1022 90.6 63.6062 89.52 63.6062ZM95.838 62.6162C95.946 63.6962 96.936 65.5322 99.762 65.5322C102.228 65.5322 103.416 63.9662 103.416 62.4362C103.416 61.0502 102.48 59.9342 100.626 59.5382L99.294 59.2502C98.772 59.1602 98.43 58.8722 98.43 58.4042C98.43 57.8642 98.97 57.4682 99.636 57.4682C100.716 57.4682 101.112 58.1702 101.184 58.7282L103.308 58.2422C103.2 57.2342 102.3 55.5242 99.618 55.5242C97.584 55.5242 96.09 56.9282 96.09 58.6022C96.09 59.9162 96.918 61.0142 98.736 61.4102L99.978 61.6982C100.698 61.8602 100.986 62.2022 100.986 62.6162C100.986 63.1202 100.59 63.5522 99.744 63.5522C98.628 63.5522 98.088 62.8682 98.016 62.1122L95.838 62.6162ZM107.286 59.4482C107.34 58.5842 108.078 57.5942 109.392 57.5942C110.85 57.5942 111.462 58.5122 111.498 59.4482H107.286ZM111.75 61.9142C111.444 62.7602 110.796 63.3542 109.608 63.3542C108.348 63.3542 107.286 62.4542 107.232 61.2122H113.964C113.964 61.1762 114 60.7982 114 60.4202C114 57.3962 112.254 55.5422 109.356 55.5422C106.944 55.5422 104.73 57.5042 104.73 60.5102C104.73 63.6962 106.998 65.5502 109.59 65.5502C111.912 65.5502 113.406 64.1822 113.874 62.5622L111.75 61.9142Z" fill="white"/>
<path d="M7.008 62.094C6.45 62.094 6 61.644 6 61.086C6 60.87 6.072 60.654 6.198 60.492L6.576 59.952L15.306 48.162C15.378 48.072 15.486 48 15.612 48C15.828 48 15.99 48.162 15.99 48.378V48.414V62.076H7.008V62.094Z" fill="#3ECF8E"/>
<path d="M25.0079 57.0005C25.5659 57.0005 26.0159 57.4505 26.0159 58.0085C26.0159 58.2245 25.9439 58.4405 25.8179 58.6025L25.4399 59.1425L16.7099 70.9324C16.6379 71.0224 16.5299 71.0944 16.4039 71.0944C16.1879 71.0944 16.0259 70.9325 16.0259 70.7165V70.6804V57.0005H25.0079Z" fill="url(#paint0_linear_235_4)"/>
<path d="M25.0079 57.0005C25.5659 57.0005 26.0159 57.4505 26.0159 58.0085C26.0159 58.2245 25.9439 58.4405 25.8179 58.6025L25.4399 59.1425L16.7099 70.9324C16.6379 71.0224 16.5299 71.0944 16.4039 71.0944C16.1879 71.0944 16.0259 70.9325 16.0259 70.7165V70.6804V57.0005H25.0079Z" fill="url(#paint1_linear_235_4)" fill-opacity="0.2"/>
<defs>
<linearGradient id="paint0_linear_235_4" x1="15.2318" y1="61.8861" x2="22.6868" y2="64.7952" gradientUnits="userSpaceOnUse">
<stop stop-color="#249361"/>
<stop offset="1" stop-color="#3ECF8E"/>
</linearGradient>
<linearGradient id="paint1_linear_235_4" x1="15.0497" y1="53.8406" x2="18.7712" y2="60.3586" gradientUnits="userSpaceOnUse">
<stop/>
<stop offset="1" stop-opacity="0"/>
</linearGradient>
</defs>
</svg>
