<svg width="120" height="120" viewBox="0 0 120 120" fill="none" xmlns="http://www.w3.org/2000/svg">
<path d="M90.4788 29.1139C82.6745 17.9501 67.2595 14.6411 56.1154 21.7387L36.5445 34.2078C35.2279 35.0351 33.9996 35.9969 32.8821 37.078C31.7632 38.159 30.7607 39.3536 29.89 40.6422C29.0192 41.9308 28.2845 43.3062 27.697 44.7462C27.111 46.1869 26.6759 47.6844 26.3987 49.2148C26.1673 50.4978 26.0411 51.7989 26.0243 53.1029C26.0061 54.4083 26.0972 55.7123 26.2949 57.0008C26.4926 58.2908 26.7969 59.5625 27.2035 60.802C27.6101 62.0415 28.1191 63.2445 28.7248 64.3999C28.3081 65.0331 27.9234 65.6869 27.5722 66.3587C27.2203 67.0303 26.9034 67.7201 26.6216 68.424C26.3398 69.1279 26.0944 69.8458 25.8855 70.5749C25.6766 71.304 25.5055 72.0429 25.3709 72.7888C24.8116 75.9256 24.8855 79.1426 25.5882 82.2504C25.9388 83.7998 26.4421 85.3112 27.0927 86.7611C27.7433 88.2109 28.5355 89.5934 29.4609 90.8861C37.2652 102.05 52.6788 105.359 63.8229 98.2613L83.3938 85.8441C84.7104 85.0154 85.9359 84.0521 87.0534 82.9697C88.1707 81.8881 89.173 80.6936 90.0441 79.4055C90.9149 78.1183 91.6496 76.7428 92.2371 75.3028C92.8246 73.8643 93.2606 72.3668 93.5396 70.8371C93.771 69.5541 93.8958 68.2543 93.9126 66.9504C93.9294 65.6464 93.8383 64.3424 93.6392 63.0538C93.4415 61.7653 93.1372 60.495 92.7292 59.2555C92.3212 58.0174 91.8122 56.8144 91.2065 55.659C91.6229 55.0266 92.0085 54.3719 92.3605 53.7002C92.711 53.0286 93.0293 52.3388 93.3111 51.6349C93.5929 50.931 93.8397 50.2131 94.05 49.484C94.2589 48.7563 94.4328 48.0174 94.5688 47.2715C94.8464 45.7067 94.967 44.1181 94.9306 42.5295C94.8941 40.9409 94.6992 39.3607 94.3487 37.8099C93.9981 36.2605 93.4948 34.749 92.8442 33.2992C92.1944 31.8492 91.4021 30.4674 90.4788 29.1742" fill="#FF3E00"/>
<path d="M54.2028 91.9657C52.6711 92.3636 51.0876 92.5253 49.507 92.4452C47.9268 92.3639 46.3677 92.0442 44.8842 91.4931C43.4007 90.943 42.0097 90.1699 40.7591 89.2007C39.5096 88.2307 38.4151 87.0762 37.5132 85.7767C36.9566 84.9985 36.4798 84.1684 36.0901 83.2963C35.6991 82.4247 35.3962 81.5163 35.1857 80.5846C34.9768 79.6521 34.859 78.7015 34.838 77.7467C34.8169 76.7918 34.8912 75.837 35.0595 74.8961C35.0861 74.7433 35.117 74.5905 35.1506 74.439C35.1829 74.2862 35.2193 74.1348 35.2586 73.9847C35.2965 73.8333 35.3385 73.6833 35.3834 73.5333C35.4268 73.3846 35.4745 73.236 35.5236 73.0888L35.8924 71.9629L36.8977 72.713C37.474 73.1336 38.0685 73.5305 38.6784 73.9006C39.2883 74.2722 39.9137 74.6171 40.553 74.934C41.191 75.2523 41.8444 75.5439 42.5076 75.8061C43.1708 76.0697 43.8452 76.3039 44.5295 76.51L45.2796 76.7273L45.2123 77.4774C45.1761 77.988 45.2293 78.5009 45.3693 78.9931C45.4381 79.2399 45.5292 79.4783 45.64 79.7082C45.7507 79.9382 45.8811 80.1583 46.0298 80.3658C46.3021 80.7572 46.6326 81.1048 47.0098 81.3964C47.3856 81.688 47.8048 81.9208 48.2521 82.0862C48.6994 82.2517 49.1677 82.347 49.6444 82.3709C50.1198 82.3961 50.5965 82.347 51.0578 82.2265C51.1644 82.1984 51.2681 82.1662 51.3719 82.1297C51.4756 82.0933 51.578 82.054 51.6775 82.0091C51.7785 81.9657 51.8766 81.918 51.9748 81.8661C52.0715 81.8156 52.1655 81.761 52.258 81.7021L71.7995 69.2315C72.0391 69.0813 72.2623 68.9065 72.4655 68.7099C72.6688 68.5122 72.8497 68.2949 73.0081 68.0607C73.1666 67.8266 73.2984 67.5756 73.4049 67.3134C73.5101 67.0512 73.5886 66.7792 73.6391 66.5016C73.6882 66.2169 73.7092 65.9295 73.7022 65.6407C73.6952 65.3532 73.6587 65.0672 73.5942 64.7854C73.5311 64.5049 73.4386 64.2315 73.3194 63.9679C73.2016 63.7057 73.0558 63.4562 72.8875 63.222C72.6155 62.8308 72.286 62.4845 71.9089 62.1928C71.5317 61.9012 71.1125 61.6684 70.6666 61.503C70.2197 61.3375 69.7502 61.241 69.2743 61.217C68.7975 61.1931 68.3208 61.2422 67.8595 61.3614C67.7544 61.3894 67.6492 61.4217 67.5454 61.4581C67.4417 61.4946 67.3407 61.5338 67.2398 61.5773C67.1388 61.6222 67.0407 61.6698 66.9439 61.7217C66.8472 61.7722 66.7518 61.8283 66.6593 61.8872L59.1551 66.6516C58.8494 66.8451 58.5353 67.0274 58.2157 67.1984C57.8946 67.3681 57.5693 67.5265 57.237 67.6724C56.9047 67.8182 56.5668 67.9514 56.2246 68.0706C55.8825 68.1911 55.5362 68.2977 55.1857 68.3916C53.6559 68.787 52.0757 68.9469 50.4983 68.8656C48.9209 68.7842 47.366 68.4632 45.8853 67.9149C44.4047 67.3653 43.0166 66.5927 41.7687 65.6252C40.5208 64.6578 39.4271 63.5066 38.5256 62.2097C37.9717 61.4315 37.4964 60.6 37.108 59.7279C36.7182 58.8558 36.4168 57.9472 36.2078 57.0162C35.9989 56.0838 35.8839 55.1331 35.8643 54.1783C35.8433 53.2248 35.9176 52.27 36.0873 51.3305C36.4187 49.4809 37.1322 47.7207 38.182 46.1623C39.2326 44.6038 40.597 43.2819 42.1879 42.2812L61.7897 29.812C62.094 29.6186 62.4052 29.4363 62.7235 29.2652C63.0418 29.0956 63.3671 28.9371 63.6966 28.7913C64.0268 28.6454 64.3626 28.5126 64.7033 28.3931C65.0426 28.2725 65.3876 28.1645 65.7367 28.0706C67.2678 27.6738 68.8508 27.5112 70.4296 27.5911C72.0098 27.6724 73.5676 27.9921 75.051 28.5431C76.5345 29.0928 77.924 29.8667 79.1747 30.8356C80.4238 31.8061 81.5179 32.9611 82.4192 34.261C82.9745 35.0378 83.4526 35.8678 83.8438 36.74C84.235 37.6121 84.5378 38.5193 84.7496 39.4517C84.9599 40.3841 85.0777 41.3348 85.0987 42.2896C85.1211 43.2445 85.0482 44.1993 84.88 45.1401C84.8505 45.2944 84.8197 45.4486 84.7846 45.6014C84.751 45.7543 84.7145 45.9071 84.6752 46.0585C84.6374 46.2114 84.5953 46.3628 84.5519 46.5128C84.5084 46.6642 84.4635 46.8143 84.4145 46.9629L84.0401 48.0888L83.0418 47.3387C82.4641 46.9138 81.8682 46.5156 81.2569 46.1413C80.6455 45.7683 80.0174 45.4206 79.3766 45.0995C78.0938 44.4595 76.7594 43.9286 75.3875 43.5123L74.636 43.2949L74.7047 42.5448C74.7257 42.2882 74.7243 42.0302 74.7005 41.775C74.6781 41.5198 74.6318 41.266 74.5645 41.0179C74.4958 40.7711 74.4075 40.5285 74.2967 40.2972C74.1873 40.0644 74.0569 39.8429 73.9083 39.6326C73.6347 39.2483 73.3042 38.9079 72.9282 38.623C72.5527 38.3369 72.1357 38.1099 71.6915 37.95C70.7991 37.6262 69.829 37.5827 68.9111 37.8252C68.8045 37.8533 68.6994 37.8855 68.597 37.9206C68.4933 37.957 68.3909 37.9977 68.29 38.0411C68.1904 38.0846 68.0909 38.1337 67.9941 38.1842C67.8974 38.236 67.802 38.2907 67.7095 38.3496L48.1315 50.7977C47.8932 50.9478 47.6702 51.123 47.4683 51.3193C47.2664 51.5156 47.0842 51.7329 46.9257 51.9657C46.7686 52.1998 46.6357 52.4493 46.5289 52.7102C46.4223 52.9724 46.3438 53.243 46.2934 53.5207C46.2443 53.8053 46.2232 54.0941 46.2303 54.383C46.2471 54.9611 46.3771 55.5304 46.613 56.0585C46.732 56.3214 46.8761 56.5722 47.0435 56.8073C47.3141 57.1942 47.6422 57.5392 48.0166 57.828C48.3902 58.1182 48.8057 58.3499 49.249 58.515C50.1404 58.8464 51.1114 58.8997 52.0337 58.6679C52.1388 58.6384 52.244 58.6062 52.3477 58.5697C52.4501 58.5333 52.5525 58.4926 52.6534 58.4491C52.7539 58.4055 52.8526 58.3577 52.9493 58.3061C53.046 58.2557 53.1414 58.201 53.2339 58.1421L60.7381 53.3861C61.0452 53.1898 61.3578 53.0047 61.6789 52.8336C61.9986 52.6612 62.3253 52.5027 62.659 52.3555C62.9916 52.2096 63.3298 52.0768 63.6727 51.9573C64.0163 51.8367 64.364 51.7301 64.7159 51.6376C66.2471 51.2394 67.8287 51.0767 69.4089 51.1553C70.9891 51.2352 72.5468 51.5549 74.0303 52.1045C75.5123 52.6541 76.9032 53.4267 78.1525 54.397C79.4032 55.3659 80.4969 56.5198 81.3985 57.8196C81.9537 58.5978 82.4304 59.4278 82.8216 60.3C83.2128 61.1716 83.5162 62.0799 83.7274 63.0117C83.9377 63.9427 84.0555 64.8933 84.0779 65.8482C84.1004 66.8044 84.0261 67.7593 83.8592 68.6987C83.6939 69.6211 83.4331 70.5238 83.081 71.3922C82.7293 72.2609 82.2875 73.0903 81.763 73.867C81.24 74.6437 80.6371 75.3644 79.9641 76.0164C79.2911 76.6684 78.5522 77.2489 77.7585 77.7481L58.1792 90.2172C57.8721 90.4121 57.5581 90.5958 57.2384 90.7668C56.9173 90.9379 56.5906 91.0963 56.2569 91.2422C55.9246 91.3894 55.5867 91.5226 55.2431 91.6432C54.901 91.7637 54.5533 91.8717 54.2028 91.9657" fill="white"/>
</svg>
