<svg width="120" height="120" viewBox="0 0 120 120" fill="none" xmlns="http://www.w3.org/2000/svg">
<path d="M28 60V28H92V92H28" fill="#007ACC"/>
<path d="M42.0322 60.1118V62.7198H50.3522V86.3999H56.2563V62.7198H64.5763V60.1598C64.5763 58.7198 64.5763 57.5518 64.5123 57.5198C64.5123 57.4718 59.4403 57.4558 53.2803 57.4558L42.0802 57.5038V60.1278L42.0322 60.1118V60.1118ZM79.4243 57.4398C81.0563 57.8238 82.3043 58.5598 83.4243 59.7278C84.0163 60.3678 84.8963 61.4878 84.9603 61.7758C84.9603 61.8718 82.1923 63.7438 80.5123 64.7838C80.4483 64.8318 80.1923 64.5598 79.9363 64.1438C79.1043 62.9598 78.2563 62.4478 76.9283 62.3518C75.0083 62.2238 73.7283 63.2318 73.7283 64.9118C73.7283 65.4238 73.8243 65.7118 74.0163 66.1278C74.4483 67.0078 75.2483 67.5358 77.7283 68.6238C82.3043 70.5918 84.2883 71.8878 85.4883 73.7438C86.8483 75.8238 87.1523 79.0879 86.2403 81.5359C85.2163 84.2079 82.7203 86.0159 79.1523 86.6079C78.0323 86.7999 75.4723 86.7679 74.2723 86.5599C71.7123 86.0799 69.2643 84.7999 67.7603 83.1519C67.1683 82.5119 66.0323 80.7999 66.0963 80.6879L66.7043 80.3039L69.1043 78.9119L70.9123 77.8559L71.3283 78.4159C71.8563 79.2479 73.0403 80.3679 73.7283 80.7519C75.8083 81.8239 78.5923 81.6799 79.9683 80.4319C80.5603 79.8879 80.8163 79.3119 80.8163 78.5119C80.8163 77.7759 80.7043 77.4398 80.3363 76.8798C79.8243 76.1758 78.8003 75.5998 75.9203 74.3198C72.6083 72.9118 71.2003 72.0158 69.8883 70.6398C69.1363 69.8078 68.4483 68.5118 68.1283 67.4398C67.8883 66.5118 67.8083 64.2398 68.0323 63.3278C68.7203 60.1278 71.1363 57.8878 74.5923 57.2478C75.7123 57.0238 78.3523 57.1198 79.4563 57.4078L79.4243 57.4398V57.4398Z" fill="white"/>
</svg>
