<svg width="120" height="120" viewBox="0 0 120 120" fill="none" xmlns="http://www.w3.org/2000/svg">
<path d="M59.8959 55.2066C56.3033 55.2066 53.7131 57.5495 53.7131 61.064C53.7131 64.5784 56.6287 66.9213 60.2213 66.9213C62.3918 66.9213 64.3052 66.0623 65.4897 64.6142L63.0003 63.1759C62.343 63.895 61.3439 64.3148 60.2213 64.3148C58.6626 64.3148 57.3381 63.5013 56.8468 62.1996H65.9648C66.0364 61.8352 66.0787 61.4577 66.0787 61.0607C66.0787 57.5495 63.4884 55.2066 59.8959 55.2066V55.2066ZM56.8175 59.925C57.2243 58.6266 58.3372 57.8098 59.8926 57.8098C61.4513 57.8098 62.5642 58.6266 62.9677 59.925H56.8175ZM94.9361 55.2066C91.3435 55.2066 88.7533 57.5495 88.7533 61.064C88.7533 64.5784 91.6689 66.9213 95.2615 66.9213C97.4319 66.9213 99.3454 66.0623 100.53 64.6142L98.0405 63.1759C97.3831 63.895 96.3841 64.3148 95.2615 64.3148C93.7027 64.3148 92.3783 63.5013 91.887 62.1996H101.005C101.077 61.8352 101.119 61.4577 101.119 61.0607C101.119 57.5495 98.5286 55.2066 94.9361 55.2066V55.2066ZM91.8609 59.925C92.2677 58.6266 93.3806 57.8098 94.9361 57.8098C96.4948 57.8098 97.6077 58.6266 98.0112 59.925H91.8609ZM79.1602 61.064C79.1602 63.0164 80.4358 64.3181 82.4143 64.3181C83.755 64.3181 84.7605 63.7095 85.2779 62.717L87.777 64.1586C86.7422 65.8833 84.8028 66.9213 82.4143 66.9213C78.8185 66.9213 76.2315 64.5784 76.2315 61.064C76.2315 57.5495 78.8217 55.2066 82.4143 55.2066C84.8028 55.2066 86.739 56.2446 87.777 57.9693L85.2779 59.4109C84.7605 58.4184 83.755 57.8098 82.4143 57.8098C80.439 57.8098 79.1602 59.1115 79.1602 61.064ZM106 51.6271V66.5959H103.071V51.6271H106ZM26.0239 50L38.0478 70.8263H14L26.0239 50ZM56.0853 51.6271L47.0682 67.2467L38.0511 51.6271H41.4321L47.0682 61.3894L52.7043 51.6271H56.0853ZM75.2552 55.532V58.6852C74.9298 58.5908 74.5849 58.5258 74.2139 58.5258C72.3233 58.5258 70.9598 59.8274 70.9598 61.7799V66.5959H68.0311V55.532H70.9598V58.5258C70.9598 56.8727 72.883 55.532 75.2552 55.532Z" fill="white"/>
</svg>
