<svg width="120" height="120" viewBox="0 0 120 120" fill="none" xmlns="http://www.w3.org/2000/svg">
<path d="M18.7992 46.9788C18.7992 46.9788 16.7533 45.504 19.2084 43.5348L24.9285 38.42C24.9285 38.42 26.5652 36.698 28.2957 38.1983L81.0807 78.1621V97.3256C81.0807 97.3256 81.0551 100.335 77.1934 100.002L18.7992 46.9788Z" fill="#2489CA"/>
<path d="M32.4045 59.3311L18.7991 71.7004C18.7991 71.7004 17.401 72.7404 18.7991 74.5988L25.1159 80.3444C25.1159 80.3444 26.6162 81.9556 28.8327 80.1228L43.2565 69.1856L32.4045 59.3311Z" fill="#1070B3"/>
<path d="M56.2906 59.4334L81.2424 40.3807L81.0804 21.3195C81.0804 21.3195 80.0149 17.1595 76.4601 19.3247L43.2563 49.5448L56.2906 59.4334Z" fill="#0877B9"/>
<path d="M77.1936 100.028C78.6428 101.511 80.3989 101.025 80.3989 101.025L99.8437 91.4436C102.333 89.7471 101.983 87.6415 101.983 87.6415V30.4238C101.983 27.909 99.4089 27.0395 99.4089 27.0395L82.5556 18.9154C78.8729 16.6393 76.4604 19.3246 76.4604 19.3246C76.4604 19.3246 79.5634 17.0911 81.0808 21.3194V96.9761C81.0808 97.4961 80.97 98.0076 80.7484 98.4679C80.3051 99.363 79.3418 100.198 77.0316 99.8489L77.1936 100.028Z" fill="#3C99D4"/>
</svg>
