<svg width="120" height="120" viewBox="0 0 120 120" fill="none" xmlns="http://www.w3.org/2000/svg">
<path d="M101.778 74.8767C101.273 73.3476 99.9503 72.2825 98.2399 72.027C97.4334 71.9066 96.5098 71.9579 95.4169 72.1832C93.5118 72.5763 92.0984 72.7259 91.067 72.7549C94.9603 66.1815 98.1261 58.6856 99.9486 51.6294C102.896 40.2198 101.321 35.0219 99.4806 32.6709C94.6104 26.4478 87.5048 23.1048 78.9327 23.0025C74.3598 22.9466 70.3454 23.8494 68.2513 24.4987C66.3015 24.1547 64.205 23.9626 62.0052 23.9271C57.8816 23.8613 54.2382 24.7602 51.1251 26.6077C49.4016 26.0249 46.6354 25.2032 43.441 24.6789C35.928 23.4455 29.8727 24.4066 25.4435 27.5356C20.0803 31.324 17.594 37.9062 18.0539 47.0993C18.1999 50.0181 19.8326 58.8987 22.4034 67.3209C23.8809 72.1618 25.4564 76.1818 27.0861 79.2703C29.3974 83.6498 31.8705 86.2288 34.6469 87.155C36.203 87.6734 39.0303 88.0365 42.004 85.5598C42.3809 86.0163 42.8838 86.4699 43.5512 86.8912C44.3988 87.4257 45.4352 87.8625 46.4703 88.1213C50.2005 89.0538 53.6946 88.8206 56.6755 87.5135C56.6939 88.0437 56.7081 88.5503 56.7199 88.9877C56.7396 89.6972 56.7594 90.3928 56.7854 91.0434C56.962 95.4423 57.2613 98.8627 58.148 101.256C58.1967 101.387 58.2622 101.588 58.3312 101.801C58.7736 103.155 59.5134 105.423 61.3954 107.199C63.3442 109.038 65.7015 109.602 67.8605 109.602C68.9433 109.602 69.9764 109.46 70.8826 109.266C74.1125 108.574 77.7809 107.519 80.4345 103.741C82.9435 100.169 84.1631 94.7887 84.3838 86.3117C84.4124 86.0719 84.4387 85.843 84.464 85.6249L84.5167 85.1769L85.1077 85.2289L85.26 85.2391C88.5498 85.3891 92.5724 84.6914 95.0429 83.5439C96.995 82.638 103.251 79.3354 101.778 74.8767" fill="black"/>
<path d="M96.1524 75.7436C86.3705 77.7615 85.6979 74.4496 85.6979 74.4496C96.0258 59.1246 100.343 39.6717 96.6178 34.9107C86.4531 21.9235 68.8579 28.0656 68.5642 28.2248L68.4698 28.2419C66.5371 27.8407 64.3745 27.6019 61.9435 27.5621C57.5176 27.4897 54.1601 28.7225 51.6123 30.6545C51.6123 30.6545 20.2241 17.7236 21.6842 46.9173C21.9947 53.1278 30.5859 93.9101 40.8328 81.592C44.5782 77.0875 48.1972 73.279 48.1972 73.279C49.9944 74.473 52.1461 75.0821 54.4018 74.8634L54.5771 74.7147C54.5225 75.2739 54.5475 75.8209 54.6472 76.4685C52.0073 79.4179 52.7832 79.9356 47.5061 81.022C42.1662 82.1225 45.3031 84.0815 47.3512 84.594C49.8342 85.2146 55.5783 86.0941 59.4595 80.6608L59.3049 81.2808C60.339 82.1094 61.0653 86.6694 60.9436 90.8035C60.8219 94.9373 60.7406 97.7755 61.5553 99.9924C62.3707 102.209 63.1828 107.197 70.1202 105.711C75.9167 104.469 78.9206 101.249 79.3387 95.8796C79.635 92.0623 80.3063 92.6267 80.3484 89.2136L80.8869 87.5979C81.5075 82.4231 80.9856 80.7536 84.5566 81.5302L85.4249 81.6065C88.0529 81.7259 91.4933 81.1835 93.5125 80.2451C97.8601 78.2275 100.439 74.8585 96.1517 75.7436H96.1524" fill="#336791"/>
<path d="M53.4501 49.6948C52.5686 49.5722 51.7703 49.6856 51.3664 49.9915C51.1395 50.1635 51.0691 50.3629 51.05 50.5C50.9994 50.8635 51.2539 51.2654 51.4105 51.4726C51.8532 52.0594 52.4999 52.4626 53.1399 52.5514C53.2327 52.5646 53.3251 52.5705 53.4169 52.5705C54.4842 52.5705 55.4548 51.7394 55.5403 51.1259C55.6472 50.3576 54.5319 49.8455 53.4501 49.6952V49.6948ZM82.6523 49.7192C82.5681 49.1169 81.4965 48.9452 80.4795 49.0867C79.4638 49.2281 78.4791 49.6866 78.5613 50.2902C78.6271 50.7595 79.4747 51.5608 80.4779 51.5608C80.5627 51.5608 80.6482 51.5552 80.7344 51.543C81.4041 51.4502 81.8955 51.025 82.129 50.7799C82.4842 50.4063 82.6901 49.9899 82.6523 49.7192" fill="white"/>
<path d="M99.4074 75.5144C99.0344 74.3866 97.8339 74.0238 95.8393 74.4356C89.9173 75.6578 87.7964 74.8112 87.1001 74.2984C91.7033 67.286 95.49 58.8092 97.5329 50.9005C98.5006 47.1542 99.0351 43.675 99.0788 40.8391C99.1272 37.7266 98.597 35.4393 97.5036 34.0421C93.0956 28.4094 86.6258 25.388 78.7944 25.3052C73.4104 25.2446 68.8616 26.6225 67.9797 27.0099C66.1227 26.5481 64.0982 26.2646 61.8942 26.2284C57.8525 26.163 54.3588 27.1306 51.4663 29.1031C50.2099 28.6354 46.9629 27.5207 42.9919 26.881C36.1268 25.7758 30.6715 26.6132 26.7784 29.3712C22.1332 32.6623 19.9887 38.5452 20.4041 46.8562C20.5439 49.6523 22.1372 58.254 24.6514 66.4917C27.9609 77.3339 31.5585 83.4718 35.3437 84.7345C35.7867 84.8822 36.2975 84.9855 36.8609 84.9855C38.2417 84.9855 39.9346 84.3631 41.696 82.2456C43.8443 79.6684 46.0666 77.1538 48.3601 74.7049C49.8481 75.5035 51.4828 75.9495 53.1546 75.9943C53.1579 76.038 53.1622 76.0818 53.1662 76.1252C52.8784 76.4684 52.5966 76.8165 52.3208 77.1695C51.1624 78.6401 50.9213 78.9463 47.1924 79.714C46.1317 79.933 43.3146 80.5135 43.2731 82.4883C43.2284 84.646 46.6034 85.5522 46.9879 85.6482C48.3278 85.9837 49.6188 86.1491 50.8499 86.1491C53.844 86.1491 56.479 85.165 58.5847 83.261C58.5199 90.9529 58.8406 98.5324 59.7642 100.842C60.5207 102.732 62.3685 107.353 68.2054 107.352C69.0619 107.352 70.0045 107.253 71.0416 107.03C77.1334 105.724 79.7788 103.032 80.8021 97.096C81.3497 93.9237 82.2894 86.3485 82.7315 82.2851C83.6643 82.5762 84.8652 82.7094 86.1634 82.709C88.871 82.709 91.9953 82.1338 93.9547 81.2243C96.1558 80.2021 100.128 77.6938 99.4074 75.5144V75.5144ZM84.9004 48.0567C84.8803 49.2563 84.7152 50.3453 84.5402 51.482C84.3517 52.7046 84.157 53.9686 84.108 55.503C84.0597 56.9963 84.2461 58.5487 84.4264 60.0502C84.7908 63.0828 85.1648 66.2048 83.7173 69.2854C83.4768 68.8594 83.2626 68.419 83.0759 67.9668C82.896 67.5307 82.5052 66.8301 81.9641 65.8605C79.8594 62.0859 74.9307 53.2467 77.4538 49.6398C78.2053 48.5662 80.1127 47.4624 84.9004 48.0567V48.0567ZM79.097 27.7342C86.114 27.8891 91.6648 30.5142 95.5946 35.536C98.6088 39.3879 95.2897 56.9147 85.6812 72.0352C85.5846 71.9123 85.4874 71.7898 85.3898 71.6678L85.2681 71.5158C87.751 67.4152 87.2656 63.3581 86.8334 59.7611C86.6558 58.2849 86.488 56.8907 86.5308 55.5809C86.5748 54.1929 86.7584 53.0023 86.936 51.8511C87.1541 50.4325 87.3761 48.9645 87.3149 47.2341C87.3606 47.0526 87.379 46.8381 87.355 46.5835C87.1988 44.9242 85.3043 39.9579 81.4428 35.463C79.3305 33.0044 76.2503 30.253 72.0445 28.3973C73.8535 28.0223 76.3272 27.6727 79.097 27.7342V27.7342ZM39.832 80.6958C37.8914 83.0291 36.5514 82.5817 36.1107 82.4351C33.2393 81.4773 29.9074 75.4082 26.9699 65.7842C24.428 57.4567 22.9427 49.0829 22.8249 46.7348C22.4539 39.3086 24.254 34.1332 28.1757 31.3519C34.5579 26.826 45.0509 29.535 49.2672 30.9088C49.2067 30.9687 49.1435 31.0246 49.0837 31.0855C42.1647 38.0729 42.3288 50.0111 42.3459 50.741C42.3452 51.0225 42.3689 51.4212 42.4012 51.9695C42.5202 53.9775 42.7419 57.7146 42.1499 61.9467C41.5999 65.8795 42.8123 69.7288 45.4755 72.5078C45.7488 72.7925 46.0361 73.0634 46.3363 73.3196C45.1509 74.5892 42.5745 77.3968 39.832 80.6958V80.6958ZM47.2257 70.8307C45.0792 68.5908 44.1043 65.4753 44.5506 62.2822C45.1755 57.8116 44.945 53.918 44.821 51.8261C44.8035 51.5333 44.7881 51.2768 44.7792 51.0745C45.7899 50.1782 50.474 47.6686 53.8144 48.434C55.3386 48.783 56.2675 49.821 56.6536 51.6064C58.6521 60.8498 56.9181 64.7024 55.5248 67.7984C55.2377 68.4362 54.9663 69.0391 54.7347 69.6627L54.5552 70.1449C54.1006 71.3638 53.6776 72.4973 53.4155 73.5735C51.1335 73.5669 48.9136 72.592 47.2257 70.8303V70.8307ZM47.5759 83.2965C46.9096 83.13 46.3103 82.8409 45.9587 82.6012C46.2524 82.463 46.775 82.2749 47.6815 82.0881C52.0682 81.1852 52.7458 80.5478 54.2253 78.6693C54.5644 78.2385 54.9489 77.7503 55.4814 77.1557L55.482 77.155C56.275 76.2669 56.6378 76.4176 57.2957 76.6906C57.8288 76.911 58.3482 77.5793 58.5587 78.3148C58.6583 78.6621 58.7702 79.3212 58.4041 79.8343C55.3136 84.1615 50.8102 84.1059 47.5759 83.2965V83.2965ZM70.5338 104.66C65.1672 105.81 63.2671 103.072 62.0149 99.9415C61.2068 97.9206 60.8094 88.8077 61.0913 78.744C61.0949 78.6101 61.0759 78.4809 61.039 78.3592C61.0061 78.1189 60.9559 77.8812 60.889 77.6481C60.47 76.1837 59.4487 74.9589 58.2235 74.451C57.7367 74.2494 56.8434 73.8794 55.7698 74.154C55.9988 73.2107 56.3958 72.1453 56.8263 70.9918L57.0069 70.5067C57.2101 69.9597 57.4654 69.393 57.7351 68.7931C59.1932 65.5539 61.19 61.1172 59.0228 51.0942C58.211 47.34 55.5001 45.5067 51.3907 45.9326C48.9271 46.1875 46.6731 47.1815 45.5489 47.7515C45.3071 47.8739 45.0861 47.9923 44.8795 48.1074C45.1933 44.3249 46.3787 37.2559 50.8131 32.7833C53.6053 29.9678 57.3236 28.5772 61.8541 28.6522C70.7808 28.7982 76.5052 33.3793 79.7358 37.197C82.5197 40.4865 84.0271 43.8003 84.6287 45.5876C80.1045 45.1274 77.0275 46.0204 75.4678 48.2505C72.0744 53.1013 77.3242 62.5161 79.8473 67.0409C80.31 67.8701 80.7093 68.5868 80.835 68.8914C81.6566 70.8826 82.7203 72.2121 83.4969 73.1824C83.735 73.4797 83.9659 73.7682 84.1416 74.0201C82.7713 74.4152 80.31 75.3279 80.5344 79.8903C80.3535 82.1795 79.0671 92.8975 78.4135 96.6842C77.5508 101.687 75.7099 103.55 70.5338 104.66V104.66ZM92.9341 79.0259C91.5329 79.6761 89.1881 80.1639 86.9607 80.2688C84.5004 80.384 83.2479 79.9932 82.9532 79.7528C82.815 76.9096 83.8732 76.6126 84.9931 76.2982C85.1691 76.2489 85.3408 76.2005 85.5065 76.1426C85.6095 76.2265 85.7223 76.3097 85.846 76.3913C87.8234 77.6964 91.3503 77.8372 96.3298 76.8093L96.3844 76.7985C95.7127 77.4264 94.5635 78.269 92.9341 79.0259Z" fill="white"/>
</svg>
