<svg xmlns="http://www.w3.org/2000/svg" viewBox="0 0 75.18 107.02"><defs><style>.cls-1{opacity:0.5;}.cls-2{fill:#fff;}.cls-3{fill:#1a8fe3;}</style></defs><title>Asset 15</title><g id="Layer_2" data-name="Layer 2"><g id="git"><g id="git-2" data-name="git"><g class="cls-1"><path class="cls-2" d="M12.41,2.34A12.29,12.29,0,0,1,25.05,7.5"/><path class="cls-3" d="M25.05,9.59a2.09,2.09,0,0,1-1.73-.92,10.18,10.18,0,0,0-8.44-4.49,10.31,10.31,0,0,0-2.05.21A2.09,2.09,0,1,1,12,.29a14.38,14.38,0,0,1,14.79,6,2.09,2.09,0,0,1-1.73,3.26Z"/></g><path class="cls-3" d="M68.85,15a2.09,2.09,0,1,0-2.34,3.46,10.18,10.18,0,1,1-11.08-.19,2.09,2.09,0,1,0-2.22-3.54A14.35,14.35,0,0,0,59,41.11a14.56,14.56,0,0,1-3.54,8.35c-3.49,3.9-9.32,5.88-17.32,5.88-8.36,0-14.82,2.43-19.19,7.21a20.11,20.11,0,0,0-1.69,2.13V28.5a14.39,14.39,0,0,0,8.2-4.4,2.09,2.09,0,1,0-3.07-2.83A10.18,10.18,0,0,1,6.44,8.66,2.09,2.09,0,0,0,3,6.33,14.35,14.35,0,0,0,13.05,28.58v49c0,.11,0,.21,0,.32a14.65,14.65,0,1,0,4.19.16v-.19c.18-3,1.05-8.42,4.8-12.5,3.55-3.87,9-5.83,16.08-5.83,9.24,0,16.11-2.45,20.43-7.27A18.79,18.79,0,0,0,63.16,41,14.35,14.35,0,0,0,68.85,15ZM25.06,92.4A10.44,10.44,0,1,1,14.62,82,10.45,10.45,0,0,1,25.06,92.4Z"/></g></g></g></svg>