<svg xmlns="http://www.w3.org/2000/svg" viewBox="0 0 119.8 106.92"><defs><style>.cls-1{opacity:0.5;}.cls-2{fill:#fff;}.cls-3{fill:#1a8fe3;}</style></defs><title>Asset 12</title><g id="Layer_2" data-name="Layer 2"><g id="megaphone"><g id="megaphone_opacity"><g id="megaphone_button" class="cls-1"><rect class="cls-2" x="40.12" y="68.38" width="7.76" height="16.74" rx="3.22" ry="3.22"/><path class="cls-3" d="M44.66,87.38H43.34a5.48,5.48,0,0,1-5.48-5.48V71.61a5.48,5.48,0,0,1,5.48-5.48h1.31a5.48,5.48,0,0,1,5.48,5.48V81.9A5.48,5.48,0,0,1,44.66,87.38ZM43.34,70.63a1,1,0,0,0-1,1V81.9a1,1,0,0,0,1,1h1.31a1,1,0,0,0,1-1V71.61a1,1,0,0,0-1-1Z"/></g><g id="megaphone_thingie" class="cls-1"><rect class="cls-2" x="104.74" y="44.61" width="16.8" height="9.52" rx="2.72" ry="2.72" transform="translate(63.77 162.51) rotate(-90)"/><path class="cls-3" d="M115.18,59.67H111.1A4.63,4.63,0,0,1,106.48,55V43.69a4.63,4.63,0,0,1,4.62-4.62h4.08a4.63,4.63,0,0,1,4.62,4.62V55A4.63,4.63,0,0,1,115.18,59.67Zm-4.08-16.8a.82.82,0,0,0-.82.82V55a.82.82,0,0,0,.82.82h4.08A.82.82,0,0,0,116,55V43.69a.82.82,0,0,0-.82-.82Z"/></g><g id="megaphone_other_thingie" class="cls-1"><rect class="cls-2" x="-3.05" y="43.37" width="21.8" height="11.9" rx="2.72" ry="2.72" transform="translate(-41.47 57.17) rotate(-90)"/><path class="cls-3" d="M11.08,62.12H4.62A4.63,4.63,0,0,1,0,57.5V41.14a4.63,4.63,0,0,1,4.62-4.62h6.46a4.63,4.63,0,0,1,4.62,4.62V57.5A4.63,4.63,0,0,1,11.08,62.12ZM4.62,40.32a.82.82,0,0,0-.82.82V57.5a.82.82,0,0,0,.82.82h6.46a.82.82,0,0,0,.82-.82V41.14a.82.82,0,0,0-.82-.82Z"/></g></g><g id="megaphone_handle"><rect class="cls-2" x="27.52" y="72.3" width="12.92" height="32.72" rx="2.72" ry="2.72"/><path class="cls-3" d="M37.72,106.92H30.25a4.63,4.63,0,0,1-4.62-4.62V75a4.63,4.63,0,0,1,4.62-4.62h7.48A4.63,4.63,0,0,1,42.35,75v27.27A4.63,4.63,0,0,1,37.72,106.92ZM30.25,74.2a.82.82,0,0,0-.82.82v27.27a.82.82,0,0,0,.82.82h7.48a.82.82,0,0,0,.82-.82V75a.82.82,0,0,0-.82-.82Z"/></g><g id="megaphone_main"><g id="megaphone_body"><path class="cls-2" d="M103.94,5.23C85.1,27.7,57.48,25.08,57.48,25.08H22.56A14.07,14.07,0,0,0,8.51,39.16V59.59A14.07,14.07,0,0,0,22.56,73.66H57.48s27.62-2.72,46.46,19.75Z"/><path class="cls-3" d="M105.84,98.64l-3.36-4c-18-21.46-44.54-19.11-44.81-19.08H22.56a16,16,0,0,1-16-16V39.16a16,16,0,0,1,16-16H57.66c.26,0,26.88,2.22,44.82-19.18l3.36-4Zm-45.26-27c7.51,0,26.3,1.67,41.46,16.87V10.13C83.46,28.79,59.39,27.16,57.39,27H22.56A12.18,12.18,0,0,0,10.41,39.16V59.59A12.18,12.18,0,0,0,22.56,71.76H57.39C57.76,71.73,58.88,71.64,60.58,71.64Z"/></g><g id="megaphone_lip"><rect class="cls-2" x="60.41" y="45.45" width="94.89" height="7.84" rx="3.92" ry="3.92" transform="translate(58.49 157.23) rotate(-90)"/><path class="cls-3" d="M107.86,98.72A5.83,5.83,0,0,1,102,92.9v-87a5.82,5.82,0,0,1,11.65,0v87A5.83,5.83,0,0,1,107.86,98.72Zm0-94.89a2,2,0,0,0-2,2v87a2,2,0,0,0,4,0v-87A2,2,0,0,0,107.86,3.83Z"/></g></g><g id="lines" class="cls-1"><line class="cls-2" x1="21.57" y1="35.38" x2="49.63" y2="35.38"/><path class="cls-3" d="M49.63,37.28H21.57a1.9,1.9,0,1,1,0-3.8H49.63a1.9,1.9,0,1,1,0,3.8Z"/><line class="cls-2" x1="55.58" y1="35.38" x2="61.96" y2="35.38"/><path class="cls-3" d="M62,37.28H55.58a1.9,1.9,0,1,1,0-3.8H62a1.9,1.9,0,1,1,0,3.8Z"/></g></g></g></svg>