<svg xmlns="http://www.w3.org/2000/svg" viewBox="0 0 88.91 107"><defs><style>.cls-1{fill:#fff;}.cls-2{fill:#1a8fe3;}.cls-3{opacity:0.5;}</style></defs><title>Asset 14</title><g id="Layer_2" data-name="Layer 2"><g id="result"><g id="result-2" data-name="result"><path class="cls-1" d="M16.62,57.68V22.88A8.35,8.35,0,0,1,25,14.53H78.55a8.35,8.35,0,0,1,8.35,8.35V96.65A8.35,8.35,0,0,1,78.55,105H25a8.35,8.35,0,0,1-8.35-8.35V66"/><path class="cls-2" d="M78.55,107H25A10.36,10.36,0,0,1,14.62,96.65V66a2,2,0,0,1,4,0V96.65A6.36,6.36,0,0,0,25,103H78.55a6.36,6.36,0,0,0,6.35-6.35V22.88a6.36,6.36,0,0,0-6.35-6.35H25a6.36,6.36,0,0,0-6.35,6.35v34.8a2,2,0,0,1-4,0V22.88A10.36,10.36,0,0,1,25,12.53H78.55A10.36,10.36,0,0,1,88.91,22.88V96.65A10.36,10.36,0,0,1,78.55,107Z"/><path class="cls-1" d="M48.16,23.57H70.3a2,2,0,0,0,2-2v-12a2,2,0,0,0-2-2H57.68V7.39A5.39,5.39,0,0,0,52.28,2h-.35a5.39,5.39,0,0,0-5.39,5.39v.17H33.22a2,2,0,0,0-2,2v12a2,2,0,0,0,2,2h5.43"/><path class="cls-2" d="M70.3,25.57H48.16a2,2,0,0,1,0-4H70.3v-12H55.68V7.39A3.4,3.4,0,0,0,52.28,4h-.35a3.4,3.4,0,0,0-3.39,3.39V9.57H33.22v12h5.42a2,2,0,0,1,0,4H33.22a4,4,0,0,1-4-4v-12a4,4,0,0,1,4-4H44.77A7.41,7.41,0,0,1,51.93,0h.35a7.41,7.41,0,0,1,7.17,5.57H70.3a4,4,0,0,1,4,4v12A4,4,0,0,1,70.3,25.57Z"/><g class="cls-3"><path class="cls-2" d="M77.86,61.76a2,2,0,0,1-2-2V32.62a2,2,0,0,1,4,0V59.76A2,2,0,0,1,77.86,61.76Z"/></g><g class="cls-3"><path class="cls-2" d="M77.86,77.85a2,2,0,0,1-2-2v-7a2,2,0,0,1,4,0v7A2,2,0,0,1,77.86,77.85Z"/></g><path class="cls-2" d="M41,75h-.06A2,2,0,0,1,39,73.47L31.17,42,26.9,58.19A2,2,0,0,1,25,59.68H2a2,2,0,0,1,0-4H23.43L29.3,33.5A2,2,0,0,1,31.23,32h0a2,2,0,0,1,1.93,1.51l8,32.07L49.5,39a2,2,0,0,1,3.86.14l4,17.07,1.2-3.36a2,2,0,0,1,1.88-1.33h7.66a2,2,0,0,1,0,4H61.87l-3,8.42A2,2,0,0,1,55,63.7L51.14,47.16,42.88,73.58A2,2,0,0,1,41,75Z"/></g></g></g></svg>