<svg xmlns="http://www.w3.org/2000/svg" viewBox="0 0 115.07 107"><defs><style>.cls-1{opacity:0.2;}.cls-2{fill:#fff;}.cls-3{fill:#1a8fe3;}.cls-4{opacity:0.5;}.cls-5{opacity:0.3;}.cls-6{opacity:0.7;}</style></defs><title>Asset 13</title><g id="Layer_2" data-name="Layer 2"><g id="wireframe"><g class="cls-1"><polygon class="cls-2" points="113.07 53.5 57.53 105 2 53.5 57.53 2 113.07 53.5"/><path class="cls-3" d="M57.54,107a2,2,0,0,1-1.36-.53L.64,55A2,2,0,0,1,.64,52L56.17.53a2,2,0,0,1,2.72,0L114.43,52a2,2,0,0,1,0,2.93L58.9,106.47A2,2,0,0,1,57.54,107ZM4.94,53.5l52.59,48.77L110.13,53.5,57.54,4.73Z"/></g><g class="cls-4"><path class="cls-3" d="M71.42,94.13a2,2,0,0,1-1.36-.53L14.52,42.09a2,2,0,1,1,2.72-2.93l55.54,51.5a2,2,0,0,1-1.36,3.47Z"/></g><g class="cls-5"><path class="cls-3" d="M85.3,81.25a2,2,0,0,1-1.36-.53L28.41,29.22a2,2,0,1,1,2.72-2.93l55.54,51.5a2,2,0,0,1-1.36,3.47Z"/></g><g class="cls-6"><path class="cls-3" d="M99.19,68.38a2,2,0,0,1-1.36-.53L42.29,16.34A2,2,0,1,1,45,13.41l55.54,51.5a2,2,0,0,1-1.36,3.47Z"/></g><g class="cls-5"><path class="cls-3" d="M43.65,94.13a2,2,0,0,1-1.36-3.47l55.54-51.5a2,2,0,0,1,2.72,2.93L45,93.59A2,2,0,0,1,43.65,94.13Z"/></g><g class="cls-4"><path class="cls-3" d="M29.77,81.25a2,2,0,0,1-1.36-3.47l55.54-51.5a2,2,0,0,1,2.72,2.93L31.13,80.72A2,2,0,0,1,29.77,81.25Z"/></g><g class="cls-6"><path class="cls-3" d="M15.88,68.38a2,2,0,0,1-1.36-3.47l55.54-51.5a2,2,0,1,1,2.72,2.93L17.24,67.84A2,2,0,0,1,15.88,68.38Z"/></g></g></g></svg>