<svg width="120" height="120" viewBox="0 0 120 120" fill="none" xmlns="http://www.w3.org/2000/svg">
<path d="M60 18C36.8026 18 18 36.8026 18 60C18 83.1974 36.8026 102 60 102C83.1974 102 102 83.1974 102 60C102 36.8026 83.1974 18 60 18ZM27.025 60.4368L59.5632 92.975C41.6947 92.7432 27.2568 78.3053 27.025 60.4368ZM67.3819 92.1518L27.8482 52.6181C31.2014 37.9584 44.3222 27.0182 60 27.0182C70.957 27.0182 80.6674 32.364 86.665 40.5893L82.0987 44.6179C77.2334 37.6426 69.1493 33.0763 60 33.0763C48.3509 33.0763 38.4288 40.475 34.679 50.8306L69.1694 85.3176C77.5459 82.2835 83.987 75.2141 86.1442 66.4579H71.8507V60H92.9851C92.9818 75.6778 82.0416 88.7986 67.3819 92.1518Z" fill="white"/>
</svg>
