<svg width="120" height="120" viewBox="0 0 120 120" fill="none" xmlns="http://www.w3.org/2000/svg">
<path d="M59.7353 18.2314L61.9929 22.4717C62.5005 23.2542 63.0504 23.9468 63.698 24.5919C65.5969 26.467 67.3668 28.4683 68.9957 30.5822C72.821 35.605 75.4011 41.1829 77.2437 47.2155C78.3487 50.9006 78.9488 54.6809 78.9937 58.5035C79.1788 69.9317 75.261 79.7446 67.362 87.9C66.0772 89.1933 64.6891 90.3797 63.2116 91.4476C62.4291 91.4476 62.059 90.8476 61.7365 90.295C61.1492 89.2705 60.7583 88.1454 60.5839 86.9774C60.3063 85.5948 60.1239 84.2122 60.2138 82.7847V82.1396C60.1504 82.0022 59.4604 18.5566 59.7353 18.2314V18.2314Z" fill="#599636"/>
<path d="M59.7352 18.0909C59.6426 17.9059 59.5501 18.046 59.4576 18.1359C59.5025 19.0611 59.18 19.8859 58.6751 20.6737C58.1199 21.4562 57.385 22.0563 56.6475 22.7013C52.5499 26.249 49.3248 30.5342 46.742 35.327C43.3054 41.7773 41.5342 48.6902 41.0319 55.968C40.8019 58.593 41.862 67.8561 42.6894 70.5287C44.947 77.624 49.0023 83.5694 54.255 88.7297C55.5451 89.9721 56.925 91.1247 58.3526 92.2324C58.7676 92.2324 58.8125 91.8623 58.9077 91.5874C59.0897 90.9991 59.2284 90.3982 59.3228 89.7897L60.248 82.8794L59.7352 18.0909Z" fill="#6CAC48"/>
<path d="M61.9927 94.2549C62.0853 93.1975 62.5928 92.3198 63.1453 91.4448C62.5902 91.2148 62.1778 90.7574 61.8553 90.2472C61.5772 89.7642 61.347 89.2551 61.1679 88.7272C60.5229 86.7921 60.3854 84.7618 60.2004 82.7845V81.5869C59.9704 81.772 59.9228 83.337 59.9228 83.5696C59.7883 85.6595 59.511 87.7378 59.0927 89.7899C58.9553 90.62 58.8627 91.4474 58.3525 92.185C58.3525 92.2775 58.3525 92.37 58.3975 92.5075C59.2276 94.9501 59.4549 97.4377 59.595 99.9729V100.898C59.595 102.003 59.5501 101.771 60.4674 102.141C60.8375 102.278 61.2499 102.326 61.62 102.601C61.8976 102.601 61.9425 102.371 61.9425 102.186L61.805 100.666V96.4253C61.7601 95.6851 61.8976 94.9501 61.9901 94.2575L61.9927 94.2549Z" fill="#C2BFBF"/>
</svg>
