<svg width="120" height="120" viewBox="0 0 120 120" fill="none" xmlns="http://www.w3.org/2000/svg">
<path d="M102 60.4113C102 54.8467 95.0314 49.5732 84.3473 46.3029C86.8129 35.4134 85.7171 26.7497 80.8887 23.9759C79.7758 23.3253 78.4745 23.0171 77.0534 23.0171V26.8353C77.841 26.8353 78.4745 26.9894 79.0053 27.2805C81.3339 28.616 82.3441 33.7012 81.5565 40.2417C81.3681 41.8512 81.0599 43.5463 80.6832 45.2756C77.3274 44.4537 73.6633 43.8202 69.8108 43.4093C67.4994 40.2417 65.1023 37.3653 62.6881 34.8483C68.2699 29.6604 73.5092 26.8182 77.0705 26.8182V23C72.362 23 66.1981 26.3559 59.9658 32.1773C53.7334 26.3901 47.5695 23.0685 42.861 23.0685V26.8867C46.4052 26.8867 51.6616 29.7118 57.2434 34.8655C54.8463 37.3824 52.4492 40.2417 50.172 43.4093C46.3025 43.8202 42.6384 44.4537 39.2825 45.2927C38.8887 43.5805 38.5976 41.9197 38.3922 40.3274C37.5874 33.7868 38.5805 28.7016 40.892 27.349C41.4056 27.0408 42.0734 26.9038 42.861 26.9038V23.0856C41.4227 23.0856 40.1215 23.3938 38.9914 24.0444C34.1802 26.8182 33.1015 35.4647 35.5842 46.32C24.9344 49.6074 18 54.8638 18 60.4113C18 65.9759 24.9686 71.2495 35.6527 74.5198C33.1871 85.4093 34.2829 94.073 39.1113 96.8467C40.2242 97.4973 41.5255 97.8055 42.9637 97.8055C47.6722 97.8055 53.8361 94.4497 60.0685 88.6282C66.3009 94.4154 72.4647 97.7371 77.1733 97.7371C78.6115 97.7371 79.9128 97.4289 81.0428 96.7782C85.8541 94.0045 86.9327 85.3579 84.4501 74.5026C95.0656 71.2324 102 65.9588 102 60.4113V60.4113ZM79.7073 48.991C79.0738 51.1998 78.2862 53.477 77.3958 55.7542C76.6938 54.3844 75.9576 53.0147 75.1529 51.6449C74.3653 50.2752 73.5263 48.9397 72.6873 47.6384C75.1186 47.998 77.4643 48.4431 79.7073 48.991ZM71.8655 67.2258C70.53 69.5373 69.1602 71.7289 67.7391 73.7664C65.1879 73.989 62.6025 74.1088 60 74.1088C57.4146 74.1088 54.8292 73.989 52.2951 73.7835C50.874 71.746 49.4872 69.5715 48.1516 67.2772C46.8504 65.0342 45.669 62.757 44.5903 60.4627C45.6519 58.1684 46.8504 55.874 48.1345 53.6311C49.47 51.3196 50.8398 49.128 52.2609 47.0905C54.8121 46.8679 57.3975 46.7481 60 46.7481C62.5854 46.7481 65.1708 46.8679 67.7048 47.0734C69.126 49.1109 70.5128 51.2854 71.8483 53.5797C73.1496 55.8227 74.331 58.0999 75.4097 60.3942C74.331 62.6885 73.1496 64.9829 71.8655 67.2258ZM77.3958 65C78.3204 67.2943 79.108 69.5887 79.7587 71.8145C77.5157 72.3624 75.1529 72.8247 72.7044 73.1843C73.5434 71.8659 74.3824 70.5132 75.17 69.1264C75.9576 67.7566 76.6938 66.3697 77.3958 65ZM60.0342 83.2691C58.4419 81.6254 56.8496 79.7933 55.2744 77.7901C56.8153 77.8585 58.3905 77.9099 59.9829 77.9099C61.5923 77.9099 63.1847 77.8757 64.7428 77.7901C63.2018 79.7933 61.6095 81.6254 60.0342 83.2691ZM47.2956 73.1843C44.8642 72.8247 42.5185 72.3795 40.2756 71.8316C40.9091 69.6229 41.6967 67.3457 42.587 65.0685C43.289 66.4382 44.0253 67.808 44.83 69.1777C45.6347 70.5475 46.4566 71.883 47.2956 73.1843ZM59.9486 37.5536C61.541 39.1973 63.1333 41.0294 64.7085 43.0326C63.1675 42.9641 61.5923 42.9128 60 42.9128C58.3905 42.9128 56.7982 42.947 55.2401 43.0326C56.7811 41.0294 58.3734 39.1973 59.9486 37.5536ZM47.2784 47.6384C46.4395 48.9568 45.6005 50.3094 44.8129 51.6963C44.0253 53.066 43.289 54.4358 42.587 55.8055C41.6625 53.5112 40.8748 51.2169 40.2242 48.991C42.4672 48.4603 44.83 47.998 47.2784 47.6384V47.6384ZM31.7831 69.075C25.722 66.4896 21.8011 63.0995 21.8011 60.4113C21.8011 57.7232 25.722 54.3159 31.7831 51.7477C33.2556 51.1141 34.8651 50.5491 36.5259 50.0183C37.5018 53.3742 38.786 56.8671 40.3783 60.4456C38.8031 64.0069 37.5361 67.4827 36.5773 70.8214C34.8822 70.2907 33.2727 69.7085 31.7831 69.075ZM40.9947 93.5422C38.6661 92.2067 37.6559 87.1215 38.4435 80.5809C38.6319 78.9715 38.9401 77.2764 39.3168 75.5471C42.6726 76.3689 46.3367 77.0024 50.1892 77.4134C52.5006 80.5809 54.8977 83.4574 57.3119 85.9743C51.7301 91.1622 46.4908 94.0045 42.9295 94.0045C42.159 93.9874 41.5084 93.8333 40.9947 93.5422V93.5422ZM81.6078 80.4953C82.4126 87.0359 81.4195 92.1211 79.108 93.4737C78.5944 93.7819 77.9266 93.9189 77.139 93.9189C73.5948 93.9189 68.3384 91.0938 62.7566 85.9401C65.1537 83.4232 67.5508 80.5638 69.828 77.3963C73.6975 76.9853 77.3616 76.3518 80.7175 75.5128C81.1113 77.2422 81.4195 78.903 81.6078 80.4953V80.4953ZM88.1998 69.075C86.7273 69.7085 85.1178 70.2735 83.457 70.8043C82.481 67.4484 81.1969 63.9556 79.6046 60.3771C81.1798 56.8157 82.4468 53.34 83.4056 50.0012C85.1007 50.532 86.7101 51.1141 88.2169 51.7477C94.278 54.3331 98.1989 57.7232 98.1989 60.4113C98.1818 63.0995 94.2609 66.5067 88.1998 69.075V69.075Z" fill="#61DAFB"/>
<path d="M59.9829 68.2358C64.3044 68.2358 67.8076 64.7326 67.8076 60.4111C67.8076 56.0897 64.3044 52.5864 59.9829 52.5864C55.6614 52.5864 52.1582 56.0897 52.1582 60.4111C52.1582 64.7326 55.6614 68.2358 59.9829 68.2358Z" fill="#61DAFB"/>
</svg>
