<svg width="120" height="120" viewBox="0 0 120 120" fill="none" xmlns="http://www.w3.org/2000/svg">
<path d="M68.234 72.3626L47.6326 68.0576C47.5464 68.2245 47.4504 68.3861 47.3452 68.5416L66.0998 95.8996L67.2312 94.7696L70.4219 74.9281C69.8826 74.7003 69.404 74.3497 69.0241 73.9042C68.6443 73.4588 68.3737 72.9308 68.234 72.3622V72.3626ZM60.7186 45.4325C59.9468 46.6163 58.6147 47.3999 57.0974 47.3999C56.8638 47.3999 56.6367 47.3762 56.4136 47.3408L47.0184 62.0409L72.1193 51.2392C72.1114 51.1381 72.0891 51.0436 72.0891 50.94C72.0891 50.7286 72.118 50.5239 72.1521 50.3218L60.7186 45.4328V45.4325ZM61.4011 42.7537L73.563 47.9537C73.9506 47.6508 74.3939 47.4269 74.8677 47.2949L76.8666 34.8657L69.2512 27.2504L60.6792 40.6632C61.0993 41.2847 61.3483 42.0058 61.4011 42.754V42.7537ZM86.8849 44.8838L79.2527 37.2505L77.5937 47.5561C78.0143 47.7675 78.3921 48.055 78.708 48.4039L86.8849 44.8838V44.8838ZM68.5988 69.648C68.8975 69.1058 69.3266 68.6466 69.8473 68.3118C70.368 67.977 70.9639 67.7772 71.5812 67.7305L73.773 54.0978C73.6011 53.9836 73.4475 53.8471 73.2966 53.7067L48.0513 64.5714C48.1156 64.8352 48.1603 65.1042 48.1813 65.3838L68.5988 69.648V69.648ZM88.9639 46.9641L80.1334 50.7638L101.921 60.0788L102 60L88.9639 46.9641ZM73.1837 74.9692L70.5299 91.4683L85.9399 76.0585L74.8401 73.7407C74.4144 74.2977 73.8404 74.7235 73.1837 74.9692V74.9692ZM43.2305 70.7272C42.6727 70.7272 42.1385 70.6314 41.6385 70.4618L36.5197 78.4722L34.5418 76.4956L39.3901 68.9094C39.2702 68.7606 39.1585 68.6054 39.0555 68.4445L30.2722 72.2261L28.1902 70.1442L37.8043 66.0059L20.4232 62.3782L18.0459 60L18.798 59.2479L38.8415 63.4321C39.072 62.9949 39.3671 62.5949 39.717 62.2457L29.9887 48.0561L31.9535 46.0913L42.1172 60.9174C42.4822 60.8327 42.8555 60.7891 43.2302 60.7875C43.6594 60.7875 44.0754 60.8479 44.4731 60.9502L53.9838 46.069C53.2095 45.2658 52.7771 44.1935 52.7776 43.0779C52.7776 42.7366 52.821 42.4059 52.8958 42.0883L41.0308 37.0155L43.1121 34.9339L54.3536 39.7416C54.9237 39.2717 55.605 38.9565 56.3321 38.8262C57.0592 38.6958 57.8077 38.7548 58.5054 38.9974L67.2742 25.2738L60.0007 18L18 60L60.0007 102L64.1337 97.867L45.2386 70.3017C44.6063 70.582 43.9222 70.7269 43.2305 70.7272V70.7272ZM76.4466 54.6854L74.2167 68.5442C74.6064 68.8574 74.9291 69.2457 75.1656 69.6861C75.4021 70.1265 75.5476 70.61 75.5935 71.1078L88.2499 73.7499L99.8393 62.1607L78.9207 53.2171C78.3221 54.014 77.4328 54.5419 76.4466 54.6858V54.6854Z" fill="#25C7B7"/>
</svg>
