<?xml version="1.0" encoding="UTF-8" standalone="no"?><!DOCTYPE svg PUBLIC "-//W3C//DTD SVG 1.1//EN" "http://www.w3.org/Graphics/SVG/1.1/DTD/svg11.dtd"><svg width="100%" height="100%" viewBox="0 0 128 128" version="1.1" xmlns="http://www.w3.org/2000/svg" xmlns:xlink="http://www.w3.org/1999/xlink" xml:space="preserve" xmlns:serif="http://www.serif.com/" style="fill-rule:evenodd;clip-rule:evenodd;stroke-linejoin:round;stroke-miterlimit:1.41421;"><rect id="Artboard2" x="0" y="0" width="128" height="128" style="fill:none;"/><g><g><path d="M41.342,74.843l-32.158,-39.653l37.269,13.775l-5.111,25.878Z" style="fill:#f73939;"/><path d="M48.758,46.528c0.595,0.689 1.043,1.511 1.049,2.415c0.002,0.225 -0.042,0.448 -0.063,0.672l-5.11,25.878c-0.203,0.636 -0.206,0.831 -0.617,1.374c-0.907,1.199 -2.687,1.671 -4.092,1.016c-0.618,-0.288 -0.711,-0.459 -1.188,-0.927l-32.159,-39.653c-0.399,-0.619 -0.726,-1.286 -0.747,-2.013c-0.051,-1.695 1.333,-3.303 3.083,-3.444c0.651,-0.052 0.811,0.042 1.433,0.197l37.269,13.776l0.607,0.296c0.178,0.138 0.356,0.275 0.535,0.413Zm-29.264,-3.951l19.944,24.592l3.17,-16.049c-7.705,-2.847 -15.409,-5.695 -23.114,-8.543Z" style="fill:#19142b;fill-rule:nonzero;"/></g><g><path d="M33.642,62.356l0.853,-51.046l19.695,34.508l-20.548,16.538Z" style="fill:#f73939;"/><path d="M36.438,8.575c0.386,0.296 0.712,0.655 0.97,1.072l19.696,34.508c0.671,1.281 0.517,2.906 -0.464,3.955c-0.144,0.154 -0.188,0.184 -0.347,0.322l-20.548,16.538c-0.169,0.126 -0.208,0.163 -0.39,0.271c-1.552,0.922 -3.828,0.324 -4.691,-1.339c-0.182,-0.351 -0.302,-0.735 -0.351,-1.128c-0.026,-0.209 -0.022,-0.263 -0.026,-0.474l0.853,-51.046c0.012,-0.216 0.009,-0.271 0.044,-0.484c0.322,-1.978 2.682,-3.37 4.619,-2.55c0.431,0.183 0.509,0.272 0.635,0.355Zm0.677,46.679l12.744,-10.256l-12.214,-21.402c-0.177,10.553 -0.353,21.106 -0.53,31.658Z" style="fill:#19142b;fill-rule:nonzero;"/></g><g><path d="M35.443,59.354l29.202,-48.683l-0.197,39.733l-29.005,8.95Z" style="fill:#f73939;"/><path d="M66.824,8.12c0.505,0.537 0.948,1.134 1.101,1.844c0.051,0.237 0.05,0.482 0.075,0.723l-0.198,39.733c-0.079,0.712 -0.239,1.415 -0.66,1.982c-0.421,0.568 -1.047,0.925 -1.705,1.207l-29.005,8.95c-0.635,0.122 -0.802,0.209 -1.454,0.117c-1.682,-0.235 -3.054,-1.888 -2.873,-3.664c0.067,-0.655 0.191,-0.796 0.461,-1.384l29.203,-48.683c0.387,-0.511 0.453,-0.684 0.993,-1.05c0.801,-0.544 1.846,-0.718 2.787,-0.455c0.466,0.13 0.874,0.407 1.275,0.68Zm-23.997,45.444l18.278,-5.64l0.125,-25.038c-6.134,10.226 -12.268,20.452 -18.403,30.678Z" style="fill:#19142b;fill-rule:nonzero;"/></g></g><g><g><circle cx="48.755" cy="81.373" r="35.973" style="fill:#fff;"/><path d="M48.881,42.066c11.748,0.056 23.484,5.689 30.864,15.136c7.622,9.757 10.275,23.218 6.723,35.276c-3.285,11.156 -11.758,20.638 -22.528,25.157c-9.509,3.99 -20.603,4.031 -30.151,0.092c-10.507,-4.335 -18.954,-13.415 -22.463,-24.324c-3.701,-11.504 -1.777,-24.659 5.311,-34.685c6.994,-9.894 18.642,-16.323 31.105,-16.639c0.38,-0.01 0.76,-0.014 1.139,-0.013Zm-0.232,6.669c-9.473,0.045 -18.815,4.389 -24.952,11.733c-7.926,9.487 -9.901,23.552 -4.362,35.048c4.377,9.085 13.165,15.946 23.142,17.892c8.178,1.596 16.939,-0.069 23.943,-4.592c9.086,-5.867 14.973,-16.379 14.973,-27.443c0,-10.81 -5.7,-21.455 -14.973,-27.442c-5.195,-3.354 -11.325,-5.166 -17.56,-5.196c-0.07,0 -0.141,0 -0.211,0Z" style="fill:#19142b;fill-rule:nonzero;"/></g><g><path d="M81.036,65.506c20.367,8.718 34.147,22.364 34.147,22.364c0,0 -29.757,29.468 -66.428,29.477c19.862,-0.009 35.973,-16.124 35.973,-35.974c0,-5.694 -1.326,-11.081 -3.692,-15.867Z" style="fill:#f73939;"/><path d="M81.645,62.228c1.556,0.472 3.054,1.239 4.56,1.954c10.786,5.117 20.875,11.815 29.692,19.793c0.513,0.464 1.021,0.934 1.518,1.415l0.104,0.101l0.475,0.586c0.222,0.454 0.445,0.916 0.502,1.414c0.087,0.757 -0.096,1.536 -0.499,2.17c-0.499,0.783 -1.243,1.326 -1.919,1.942c-9.981,9.084 -21.465,16.466 -33.829,21.746c-10.581,4.519 -22.051,7.302 -33.381,7.332c0,0 -0.496,-0.002 -0.852,-0.083c-1.923,-0.437 -3.188,-2.776 -2.268,-4.693c0.433,-0.903 1.282,-1.583 2.259,-1.808c0.457,-0.105 0.927,-0.083 1.38,-0.091c11.248,-0.236 22.143,-6.638 27.782,-16.571c5.009,-8.826 5.562,-20.04 1.41,-29.32c-0.171,-0.382 -0.35,-0.761 -0.535,-1.136l-0.25,-0.693c-0.081,-0.643 -0.157,-0.816 -0.022,-1.462c0.203,-0.971 0.858,-1.824 1.725,-2.276c0.586,-0.305 0.773,-0.278 1.414,-0.374c0.245,0.018 0.49,0.036 0.734,0.054Zm5.304,9.833c2.134,8.833 1.121,18.467 -2.922,26.668c-1.673,3.391 -3.835,6.526 -6.416,9.323c11.712,-4.704 22.748,-11.622 32.4,-19.981l0.23,-0.2c-7.134,-6.23 -14.97,-11.54 -23.309,-15.88c0.005,0.023 0.011,0.047 0.017,0.07Z" style="fill:#19142b;fill-rule:nonzero;"/></g><g><path d="M55.483,59.646c3.966,0.038 7.853,1.666 10.633,4.447c4.384,4.386 5.733,11.532 2.947,17.31c-2.847,5.906 -9.775,9.58 -16.453,8.342c-5.787,-1.072 -10.739,-5.82 -12.033,-11.591c-1.496,-6.668 2.004,-14.199 8.562,-17.165c1.987,-0.899 4.175,-1.35 6.344,-1.343Zm-0.153,6.669c-3.816,0.036 -7.409,2.904 -8.246,6.636c-0.631,2.81 0.265,5.911 2.36,7.959c2.342,2.287 6.059,3.058 9.154,1.793c2.724,-1.114 4.779,-3.723 5.205,-6.634c0.525,-3.593 -1.514,-7.413 -4.827,-8.961c-1.137,-0.532 -2.388,-0.797 -3.646,-0.793Z" style="fill:#19142b;fill-rule:nonzero;"/><circle cx="61.719" cy="74.668" r="6.705" style="fill:#19142b;"/></g></g></svg>