<?xml version="1.0" encoding="UTF-8" standalone="no"?><!DOCTYPE svg PUBLIC "-//W3C//DTD SVG 1.1//EN" "http://www.w3.org/Graphics/SVG/1.1/DTD/svg11.dtd"><svg width="100%" height="100%" viewBox="0 0 782 590" version="1.1" xmlns="http://www.w3.org/2000/svg" xmlns:xlink="http://www.w3.org/1999/xlink" xml:space="preserve" xmlns:serif="http://www.serif.com/" style="fill-rule:evenodd;clip-rule:evenodd;stroke-linecap:round;stroke-linejoin:round;stroke-miterlimit:1.5;"><rect id="logo" x="0" y="0" width="781.382" height="589.784" style="fill:none;"/><g><path d="M277.952,377.592l-257.417,-93.692l209.508,-39.483l47.909,133.175Z" style="fill:#f73939;stroke:#19142b;stroke-width:30px;"/><path d="M208.055,341.394l-136.968,-237.236l185.871,104.424l-48.903,132.812Z" style="fill:#f73939;stroke:#19142b;stroke-width:30px;"/><path d="M208.055,322.608l0,-304.608l108.757,183.369l-108.757,121.239Z" style="fill:#f73939;stroke:#19142b;stroke-width:30px;"/><circle cx="402.247" cy="377.592" r="194.192" style="fill:#fff;stroke:#19142b;stroke-width:30px;"/><path d="M576.511,291.937c109.945,47.062 184.335,120.728 184.335,120.728c0,0 -160.637,159.074 -358.599,159.119c107.221,-0.044 194.192,-87.042 194.192,-194.192c0,-30.738 -7.157,-59.818 -19.928,-85.655Z" style="fill:#f73939;stroke:#19142b;stroke-width:30px;"/><circle cx="438.042" cy="342.228" r="63.929" style="fill:none;stroke:#19142b;stroke-width:30px;"/><circle cx="472.235" cy="341.394" r="36.197" style="fill:#19142b;"/></g></svg>