<svg xmlns="http://www.w3.org/2000/svg" viewBox="0 0 400 70"><defs><style>.cls-1{fill:#ffb565;}.cls-2{fill:#ffa33e;}.cls-3{fill:#6cc247;}</style></defs><title>bot-bun</title><g id="Layer_2" data-name="Layer 2"><g id="iphone_4" data-name="iphone 4"><path class="cls-1" d="M400,35.16a33.4,33.4,0,0,1-.91,7.84H.93A33.66,33.66,0,0,1,0,35.06,35.34,35.34,0,0,1,10.34,10c.54-.53,1.09-1.09,1.66-1.59l.17,0,.18-.16h0a1.84,1.84,0,0,0-.22.17C59.07,24.9,125.87,35,200,35S340.93,24.85,387.83,8.44c.05,0,.11.09.16.07A35.47,35.47,0,0,1,400,35.16Z"/><path class="cls-2" d="M12.17,8.44,12,8.38l.17-.15.18.06Z"/><path class="cls-2" d="M388,8.38l-.16.06C340.93,24.85,274.13,35,200,35S59.07,24.9,12.17,8.49a1.89,1.89,0,0,1,.22-.18C59.28,24.66,126,34.9,200,34.9S340.77,24.67,387.66,8.3l.17-.06Z"/><path class="cls-3" d="M387.83,8.44C340.93,24.85,274.13,35,200,35S59.07,24.9,12.17,8.49a1.89,1.89,0,0,1,.22-.18,34.64,34.64,0,0,1,18-8A37.5,37.5,0,0,1,35.29,0H364.71a35,35,0,0,1,23,8.3Z"/><path class="cls-2" d="M.93,43A41.2,41.2,0,0,0,8.31,58a37.07,37.07,0,0,0,27,12H364.71a34.84,34.84,0,0,0,25-10c.72-.72,1.42-2,2.07-2a41.31,41.31,0,0,0,7.36-15Z"/></g></g></svg>