<svg xmlns="http://www.w3.org/2000/svg" viewBox="0 0 967.67 1584.9"><defs><style>.cls-1{fill:#ebebeb;}.cls-2{fill:#fafafa;stroke:#333;stroke-miterlimit:10;stroke-width:40px;}.cls-3{fill:#ccc;opacity:0.57;}.cls-4{fill:#d12a2a;}.cls-5{fill:#f73939;}.cls-6{fill:#333;}.cls-7{fill:#d6d6d6;}.cls-8{fill:#fff;}</style></defs><title>breakout_1</title><g id="Layer_2" data-name="Layer 2"><g id="Breakout"><ellipse class="cls-1" cx="483.84" cy="1540.13" rx="412" ry="44.77"/><path class="cls-2" d="M729,724.49"/><path class="cls-2" d="M871,542.68,758.59,712.76,485.84,471.25,190.51,739.91,65.91,616.45C36.49,699.65,20,793,20,891.56,20,1241.42,227.67,1525,483.84,1525s463.84-283.61,463.84-633.47C947.67,762.65,919.47,642.73,871,542.68Z"/><path class="cls-3" d="M867.67,584.23l-50.48,76.45c35.4,85.07,58.39,187.39,54.77,291.72-12.19,351.23-231.67,531.17-474.13,531.17a331.78,331.78,0,0,1-38.33-2.22c63.08,20,64.08,20.23,97.58,22.47,265.08,17.75,459.75-264.25,469.59-568.25C931.72,779.64,909.84,687.06,867.67,584.23Z"/><path class="cls-4" d="M491.39,47.54,486.08,49l-5.31-1.46c-18.27-5-33.88-7.54-46.35-7.54-14.81,0-25.19,3.54-30.32,10.58-6.4,8.78-16.67,39.21,26.07,131.92,18.39,39.89,40.64,78.15,55.91,103,15.27-24.83,37.52-63.09,55.91-103,42.74-92.7,32.47-123.13,26.07-131.92C558.6,37.61,531.38,36.53,491.39,47.54Z"/><path class="cls-5" d="M491.39,77.54,486.08,79l-5.31-1.46c-18.27-5-33.88-7.54-46.35-7.54-14.81,0-25.19,3.54-30.32,10.58-6.4,8.78-16.67,39.21,26.07,131.92,18.39,39.89,40.64,78.15,55.91,103,15.27-24.83,37.52-63.09,55.91-103,42.74-92.7,32.47-123.13,26.07-131.92C558.6,67.61,531.38,66.53,491.39,77.54Z"/><path class="cls-6" d="M600.38,27C589.8,12.5,573.83,3.74,552.92,1c-18.35-2.43-40.25-.28-66.84,6.59-26.59-6.87-48.5-9-66.84-6.59C398.33,3.74,382.36,12.5,371.77,27c-23.63,32.42-16.42,88.76,22.07,172.23,25.34,55,57.56,106.73,70.83,127.32l.83,62.71,20.58-30.62,20.58,30.61.83-62.71C520.75,306,553,254.21,578.32,199.25,616.8,115.78,624,59.45,600.38,27ZM542,182.5c-18.39,39.89-40.64,78.15-55.91,103-15.27-24.83-37.52-63.09-55.91-103C387.42,89.8,397.7,59.37,404.1,50.58c5.13-7,15.51-10.58,30.32-10.58,12.47,0,28.08,2.5,46.35,7.54L486.08,49l5.31-1.46c40-11,67.22-9.92,76.67,3C574.46,59.37,584.73,89.8,542,182.5Z"/><path class="cls-7" d="M483.84,282.28c-128.27,0-232.63,93.93-232.63,209.39S355.57,701.07,483.84,701.07s232.63-93.93,232.63-209.39S612.11,282.28,483.84,282.28Z"/><path class="cls-8" d="M483.84,317.28c-128.27,0-232.63,93.93-232.63,209.39S355.57,736.07,483.84,736.07s232.63-93.93,232.63-209.39S612.11,317.28,483.84,317.28Z"/><path class="cls-6" d="M675.92,314.66C624.51,268,556.3,242.28,483.84,242.28S343.16,268,291.76,314.66c-51.94,47.16-80.55,110-80.55,177s28.61,129.85,80.55,177c51.4,46.68,119.62,72.38,192.08,72.38s140.68-25.71,192.08-72.38c51.94-47.16,80.55-110,80.55-177S727.86,361.83,675.92,314.66ZM483.84,701.07c-128.27,0-232.63-93.93-232.63-209.39S355.57,282.28,483.84,282.28s232.63,93.93,232.63,209.39S612.11,701.07,483.84,701.07Z"/><path class="cls-4" d="M561.9,544.64c-30.94-25.47-62.13-47.3-78.06-58.11-16,10.85-47.34,32.8-78.32,58.32-77.23,63.63-83.23,92-83.23,99.19s6,35.57,83.23,99.19c31,25.52,62.33,47.47,78.32,58.32,16-10.85,47.35-32.8,78.32-58.32,77.23-63.63,83.23-92,83.23-99.19S639.37,608.41,561.9,544.64Z"/><path class="cls-5" d="M561.9,579.64c-30.94-25.47-62.13-47.3-78.06-58.11-16,10.85-47.34,32.8-78.32,58.32-77.23,63.63-83.23,92-83.23,99.19s6,35.57,83.23,99.19c31,25.52,62.33,47.47,78.32,58.32,16-10.85,47.35-32.8,78.32-58.32,77.23-63.63,83.23-92,83.23-99.19S639.37,643.41,561.9,579.64Z"/><path class="cls-6" d="M652.26,575.64c-15.82-18.62-37.67-39.44-64.94-61.89a1118.91,1118.91,0,0,0-92.63-68.06l-10.86-7-10.86,7a1118.91,1118.91,0,0,0-92.63,68.06c-27.27,22.45-49.11,43.27-64.94,61.89-22.29,26.23-33.13,48.61-33.13,68.4s10.84,42.17,33.13,68.4c15.82,18.62,37.67,39.44,64.94,61.89A1118.73,1118.73,0,0,0,473,842.39l10.86,7,10.86-7a1118.73,1118.73,0,0,0,92.63-68.06c27.27-22.45,49.11-43.27,64.94-61.89,22.29-26.23,33.13-48.61,33.13-68.4S674.55,601.87,652.26,575.64Zm-90.1,167.59c-31,25.52-62.33,47.47-78.32,58.32-16-10.85-47.35-32.8-78.32-58.32-77.23-63.63-83.23-92-83.23-99.19s6-35.57,83.23-99.19c31-25.52,62.33-47.47,78.32-58.32,15.93,10.81,47.12,32.64,78.06,58.11,77.47,63.77,83.49,92.21,83.49,99.41S639.39,679.61,562.16,743.24Z"/><g id="left_eye"><circle class="cls-6" cx="383.56" cy="399.73" r="36.57"/></g><g id="right_eye"><circle class="cls-6" cx="584.11" cy="399.73" r="36.57"/></g></g></g></svg>