<svg xmlns="http://www.w3.org/2000/svg" viewBox="0 0 280.48 507.2"><defs><style>.cls-1{fill:#fff;}.cls-2{fill:#f73939;}.cls-3{opacity:0.5;}.cls-4{fill:#d12a2a;}.cls-5{fill:#2a1a1f;}.cls-6{fill:#d6d6d6;}.cls-7{fill:none;stroke:#2a1a1f;stroke-linecap:round;stroke-linejoin:round;stroke-width:18px;}</style></defs><title>drink</title><g id="Layer_2" data-name="Layer 2"><g id="Drank"><polygon id="body-bg" class="cls-1" points="214.26 498.2 66.22 498.2 34.5 159.05 245.99 159.05 214.26 498.2"/><g id="stripes"><rect class="cls-2" x="66.56" y="164.45" width="18.12" height="328.37" transform="translate(-29 8.05) rotate(-5.11)"/><rect class="cls-2" x="109.64" y="165.03" width="18.12" height="327.21" transform="translate(-9.75 3.69) rotate(-1.71)"/><rect class="cls-2" x="-1.82" y="319.58" width="327.21" height="18.12" transform="translate(-171.54 480.53) rotate(-88.29)"/><rect class="cls-2" x="40.68" y="319.58" width="328.37" height="18.12" transform="translate(-140.73 503.39) rotate(-84.89)"/></g><polygon id="label-shadow" class="cls-3" points="53.62 282.57 234.14 285.71 221.48 379.56 45.85 383.85 53.62 282.57"/><polygon id="label" class="cls-1" points="46.18 283.92 237.05 254.61 228.02 351.16 55.64 385.06 46.18 283.92"/><circle class="cls-2" cx="141.61" cy="321.22" r="25.07"/><path class="cls-4" d="M142.07,293.16l-.33.09-.33-.09a11.09,11.09,0,0,0-2.84-.46,2.21,2.21,0,0,0-1.86.65c-.39.54-1,2.4,1.6,8.08a62.68,62.68,0,0,0,3.43,6.31,62.69,62.69,0,0,0,3.43-6.31c2.62-5.68,2-7.55,1.6-8.08C146.19,292.55,144.52,292.49,142.07,293.16Z"/><path class="cls-2" d="M142.07,295l-.33.09-.33-.09a11.09,11.09,0,0,0-2.84-.46,2.21,2.21,0,0,0-1.86.65c-.39.54-1,2.4,1.6,8.08a62.69,62.69,0,0,0,3.43,6.31,62.69,62.69,0,0,0,3.43-6.31c2.62-5.68,2-7.55,1.6-8.08C146.19,294.39,144.52,294.33,142.07,295Z"/><path class="cls-5" d="M148.75,291.91a4.09,4.09,0,0,0-2.91-1.6,10.89,10.89,0,0,0-4.1.4,10.9,10.9,0,0,0-4.1-.4,4.09,4.09,0,0,0-2.91,1.6c-1.45,2-1,5.44,1.35,10.55a68.06,68.06,0,0,0,4.34,7.8l.05,3.84,1.26-1.88L143,314.1l.05-3.84a68.07,68.07,0,0,0,4.34-7.8C149.76,297.35,150.2,293.89,148.75,291.91Zm-3.58,9.53a62.69,62.69,0,0,1-3.43,6.31,62.68,62.68,0,0,1-3.43-6.31c-2.62-5.68-2-7.55-1.6-8.08a2.21,2.21,0,0,1,1.86-.65,11.09,11.09,0,0,1,2.84.46l.33.09.33-.09c2.45-.67,4.12-.61,4.7.19C147.16,293.89,147.79,295.75,145.17,301.43Z"/><path class="cls-6" d="M141.61,307.55c-7.86,0-14.26,5.76-14.26,12.83s6.39,12.83,14.26,12.83,14.26-5.76,14.26-12.83S149.47,307.55,141.61,307.55Z"/><path class="cls-1" d="M141.61,309.69c-7.86,0-14.26,5.76-14.26,12.83s6.39,12.83,14.26,12.83,14.26-5.76,14.26-12.83S149.47,309.69,141.61,309.69Z"/><path class="cls-5" d="M153.38,309.53a17.84,17.84,0,0,0-23.54,0,14.39,14.39,0,0,0,0,21.69,17.84,17.84,0,0,0,23.54,0,14.39,14.39,0,0,0,0-21.69Zm-11.77,23.68c-7.86,0-14.26-5.76-14.26-12.83s6.39-12.83,14.26-12.83,14.26,5.76,14.26,12.83S149.47,333.21,141.61,333.21Z"/><path class="cls-4" d="M146.39,323.62c-1.9-1.56-3.81-2.9-4.78-3.56-1,.66-2.9,2-4.8,3.57-4.73,3.9-5.1,5.64-5.1,6.08s.37,2.18,5.1,6.08c1.9,1.56,3.82,2.91,4.8,3.57,1-.66,2.9-2,4.8-3.57,4.73-3.9,5.1-5.64,5.1-6.08S151.14,327.53,146.39,323.62Z"/><path class="cls-2" d="M146.39,325.77c-1.9-1.56-3.81-2.9-4.78-3.56-1,.66-2.9,2-4.8,3.57-4.73,3.9-5.1,5.64-5.1,6.08s.37,2.18,5.1,6.08c1.9,1.56,3.82,2.91,4.8,3.57,1-.66,2.9-2,4.8-3.57,4.73-3.9,5.1-5.64,5.1-6.08S151.14,329.68,146.39,325.77Z"/><path class="cls-5" d="M151.93,325.52a31.86,31.86,0,0,0-4-3.79,68.57,68.57,0,0,0-5.68-4.17l-.67-.43-.67.43a68.57,68.57,0,0,0-5.68,4.17,31.86,31.86,0,0,0-4,3.79c-1.37,1.61-2,3-2,4.19s.66,2.58,2,4.19a31.86,31.86,0,0,0,4,3.79,68.55,68.55,0,0,0,5.68,4.17l.67.43.67-.43A68.55,68.55,0,0,0,148,337.7a31.86,31.86,0,0,0,4-3.79c1.37-1.61,2-3,2-4.19S153.3,327.13,151.93,325.52Zm-5.52,10.27c-1.9,1.56-3.82,2.91-4.8,3.57-1-.66-2.9-2-4.8-3.57-4.73-3.9-5.1-5.64-5.1-6.08s.37-2.18,5.1-6.08c1.9-1.56,3.82-2.91,4.8-3.57,1,.66,2.89,2,4.78,3.56,4.75,3.91,5.12,5.65,5.12,6.09S151.14,331.9,146.41,335.79Z"/><g id="left_eye"><circle class="cls-5" cx="135.47" cy="314.74" r="2.24"/></g><g id="right_eye"><circle class="cls-5" cx="147.76" cy="314.74" r="2.24"/></g><polygon id="body" class="cls-7" points="214.26 498.2 66.22 498.2 34.5 159.05 245.99 159.05 214.26 498.2"/><polyline id="straw" class="cls-7" points="143.62 130.8 147.83 55.5 249.33 9"/><rect id="lid-shadow" class="cls-3" x="34.5" y="158" width="208.51" height="32.88"/><g id="lid"><path class="cls-1" d="M271.48,161.22H9c1.16-9.88,5.86-20.53,13.12-30.42H258.36C265.62,140.68,270.32,151.33,271.48,161.22Z"/><path class="cls-7" d="M271.48,161.22H9c1.16-9.88,5.86-20.53,13.12-30.42H258.36C265.62,140.68,270.32,151.33,271.48,161.22Z"/></g></g></g></svg>