<svg xmlns="http://www.w3.org/2000/svg" viewBox="0 0 424.2 369.87"><defs><style>.cls-1{fill:#d6a557;}.cls-2{fill:#ffc160;}.cls-3{fill:none;}.cls-3,.cls-4,.cls-5,.cls-8,.cls-9{stroke:#2a1a1f;stroke-width:18px;}.cls-3,.cls-5,.cls-9{stroke-linecap:round;stroke-linejoin:round;}.cls-4{fill:#f22f2f;}.cls-5{fill:#b0db43;}.cls-6{fill:#bf9148;}.cls-7{fill:#fff3df;}.cls-8{fill:#825738;}.cls-9{fill:#fdab02;}</style></defs><title>burger</title><g id="Layer_2" data-name="Layer 2"><g id="Durger"><g id="bottom-bun"><path class="cls-1" d="M212.1,360.87c62.88,0,119-9,155.28-23.47,36.64-14.5,53.41-34.53,46.16-56.65H10.66c-7.25,22.13,9.52,42.16,46.16,56.65C93.09,351.91,149.22,360.88,212.1,360.87Z"/><path class="cls-2" d="M56.82,337.41c36.27,14.5,92.4,23.47,155.28,23.47s119-9,155.28-23.47c23.75-9.4,39.14-21.13,45.07-34.24H11.75C17.67,316.28,33.07,328,56.82,337.41Z"/><path class="cls-3" d="M212.1,360.87c62.88,0,119-9,155.28-23.47,36.64-14.5,53.41-34.53,46.16-56.65H10.66c-7.25,22.13,9.52,42.16,46.16,56.65C93.09,351.91,149.22,360.88,212.1,360.87Z"/></g><rect id="ketchup" class="cls-4" x="9" y="169.92" width="406.2" height="25.92" rx="12.96" ry="12.96"/><path id="salad" class="cls-5" d="M398.34,173.59,348.1,187.25l-46-13.67-30.15,4.67-39.19-8-32.66,3.33-18.67,3.33-35.67-3.33-18.67,6.33-37-6.33s-24.92-2.1-33.25-2.08c-7.77,0-31,2.08-31,2.08C16.27,168.84,9,166,9,156.73H9a16.86,16.86,0,0,1,16.86-16.86H398.34a16.86,16.86,0,0,1,16.86,16.86h0A16.86,16.86,0,0,1,398.34,173.59Z"/><g id="top-bun"><path class="cls-1" d="M212.1,32.5C323,32.5,406.75,78.81,410.3,139.88h3.24C420.8,103.73,404,71,367.38,47.33,331.11,23.65,275,9,212.1,9S93.09,23.65,56.82,47.33C20.18,71,3.4,103.73,10.66,139.88H13.9C17.45,78.81,101.18,32.5,212.1,32.5Z"/><path class="cls-2" d="M212.1,32.5C98.55,32.5,14.5,78.81,13.9,139.88H410.3C409.7,78.81,325.65,32.5,212.1,32.5Z"/><path class="cls-3" d="M212.1,9c-62.88,0-119,14.65-155.28,38.33C20.18,71,3.4,103.73,10.66,139.88H413.54C420.8,103.73,404,71,367.38,47.33,331.11,23.65,275,9,212.1,9Z"/><path class="cls-6" d="M159.87,63.38c-2.05,2.33-10.28,3.94-10.28,3.94a.61.61,0,0,1-.77-.67s.54-8.37,2.6-10.7a5.63,5.63,0,0,1,8.45,7.43Z"/><path class="cls-7" d="M159.59,64c-2.05,2.22-10.28,3.74-10.28,3.74a.6.6,0,0,1-.77-.64s.54-7.95,2.6-10.17a5.84,5.84,0,0,1,7.94-.48A5.16,5.16,0,0,1,159.59,64Z"/><path class="cls-6" d="M112.86,66.41c.06,3.11-4.94,9.84-4.94,9.84a.61.61,0,0,1-1,0s-5.23-6.55-5.29-9.66a5.63,5.63,0,1,1,11.25-.2Z"/><path class="cls-7" d="M112.87,67.37c.06,3-4.94,9.35-4.94,9.35a.63.63,0,0,1-1,0s-5.23-6.22-5.29-9.17a5.64,5.64,0,0,1,11.25-.19Z"/><path class="cls-6" d="M244.21,51.2c-3.08.39-10.31-3.86-10.31-3.86a.61.61,0,0,1-.13-1s6-5.91,9-6.29a5.63,5.63,0,1,1,1.4,11.17Z"/><path class="cls-7" d="M243.79,51.4c-3.08.37-10.31-3.67-10.31-3.67a.57.57,0,0,1-.13-1s6-5.61,9-6a5.58,5.58,0,0,1,6.29,4.64A5.41,5.41,0,0,1,243.79,51.4Z"/><path class="cls-6" d="M246.21,73.51c.68,3-2.85,10.64-2.85,10.64a.61.61,0,0,1-1,.22S235.91,79,235.23,76a5.63,5.63,0,1,1,11-2.48Z"/><path class="cls-7" d="M246.3,74.51c.68,2.88-2.85,10.1-2.85,10.1a.63.63,0,0,1-1,.21s-6.45-5.08-7.14-8a5.35,5.35,0,0,1,4.25-6.39A5.64,5.64,0,0,1,246.3,74.51Z"/><path class="cls-6" d="M295.25,51.41c1.93,2.44,2,10.82,2,10.82a.61.61,0,0,1-.8.63s-8.13-2-10.06-4.47a5.63,5.63,0,1,1,8.83-7Z"/><path class="cls-7" d="M295.51,52.39c1.93,2.32,2,10.28,2,10.28a.61.61,0,0,1-.8.6s-8.13-1.93-10.06-4.25a5.17,5.17,0,0,1,.92-7.51A5.83,5.83,0,0,1,295.51,52.39Z"/><path class="cls-6" d="M322.15,79.56c-1.21,2.86-8.5,7-8.5,7a.61.61,0,0,1-.94-.4s-2.13-8.11-.93-11a5.63,5.63,0,0,1,10.37,4.37Z"/><path class="cls-7" d="M322,80.35c-1.21,2.72-8.5,6.64-8.5,6.64a.62.62,0,0,1-.94-.38s-2.13-7.7-.93-10.42A5.74,5.74,0,0,1,319,73.35,5.25,5.25,0,0,1,322,80.35Z"/><path class="cls-6" d="M191,40.34c.24,1.9-2.38,6.37-2.38,6.37a.38.38,0,0,1-.63.08s-3.65-3.68-3.89-5.58a3.48,3.48,0,1,1,6.9-.87Z"/><path class="cls-7" d="M191,40.95c.24,1.81-2.38,6-2.38,6a.39.39,0,0,1-.63.07s-3.65-3.49-3.89-5.3a3.34,3.34,0,0,1,3-3.69A3.44,3.44,0,0,1,191,40.95Z"/><path class="cls-6" d="M207.71,59.39c2.25-.8,8.38,1.2,8.38,1.2a.47.47,0,0,1,.26.74s-3.49,5.41-5.74,6.21a4.33,4.33,0,0,1-2.9-8.15Z"/><path class="cls-7" d="M208,59.81c2.25-.76,8.38,1.14,8.38,1.14a.44.44,0,0,1,.26.7s-3.49,5.14-5.74,5.9a4.39,4.39,0,0,1-5.52-2.5A4.06,4.06,0,0,1,208,59.81Z"/><path class="cls-6" d="M264.91,62.54c1.76-.63,6.56.94,6.56.94a.37.37,0,0,1,.21.58s-2.73,4.24-4.5,4.87a3.39,3.39,0,0,1-2.27-6.38Z"/><path class="cls-7" d="M265.15,62.86c1.76-.59,6.56.89,6.56.89a.35.35,0,0,1,.21.55s-2.73,4-4.5,4.62a3.44,3.44,0,0,1-4.32-2A3.18,3.18,0,0,1,265.15,62.86Z"/></g><rect id="burger" class="cls-8" x="9" y="231.92" width="406.2" height="48.83" rx="24.42" ry="24.42"/><path id="cheese" class="cls-9" d="M397.16,231.92H334.6l-43.12,30-40.62-30H27a18,18,0,0,1-18-18H9a18,18,0,0,1,18-18H397.16a18,18,0,0,1,18,18h0A18,18,0,0,1,397.16,231.92Z"/></g></g></svg>