<svg xmlns="http://www.w3.org/2000/svg" viewBox="0 0 332.08 427.13"><defs><style>.cls-1{fill:#fdab02;}.cls-1,.cls-2{stroke:#2a1a1f;stroke-linecap:round;stroke-linejoin:round;stroke-width:18px;}.cls-2{fill:#dbd9dc;}.cls-3{fill:#2a1a1f;}.cls-4{fill:#fff;}.cls-5{fill:#f73939;}</style></defs><title>fries</title><g id="Layer_2" data-name="Layer 2"><g id="Fries"><g id="fries-2" data-name="fries"><rect class="cls-1" x="19.75" y="10.53" width="33" height="150.62" rx="0.5" ry="0.5" transform="translate(-12.14 6.21) rotate(-8.39)"/><rect class="cls-1" x="67.25" y="63.55" width="33" height="150.62" rx="0.5" ry="0.5"/><rect class="cls-1" x="105.75" y="127.08" width="33" height="150.62" rx="0.5" ry="0.5"/><rect class="cls-1" x="153.58" y="10.53" width="33" height="150.62" rx="0.5" ry="0.5"/><rect class="cls-1" x="138.75" y="95.58" width="33" height="150.62" rx="0.5" ry="0.5"/><rect class="cls-1" x="171.75" y="103.08" width="33" height="150.62" rx="0.5" ry="0.5"/><rect class="cls-1" x="204.75" y="76.41" width="33" height="150.62" rx="0.5" ry="0.5"/><rect class="cls-1" x="237.75" y="39.41" width="33" height="150.62" rx="0.5" ry="0.5" transform="translate(6.04 -12.54) rotate(2.86)"/><rect class="cls-1" x="272.5" y="17.57" width="33" height="150.62" rx="0.5" ry="0.5" transform="translate(15.32 -38.45) rotate(7.82)"/></g><path id="body" class="cls-2" d="M256.72,120.22c0,.83,0,1.66,0,2.49,0,58.17-38.8,105.33-86.67,105.33S83.41,180.88,83.41,122.7c0-.83,0-1.66,0-2.49H17.08L58.35,388.1c2.65,17.19,19.53,30,39.48,30H242.32c20,0,36.84-12.84,39.48-30l41.27-267.88Z"/><g id="face"><circle class="cls-3" cx="124.41" cy="292.37" r="17.33"/><circle class="cls-4" cx="128.18" cy="287.18" r="5.19"/><circle class="cls-3" cx="223.25" cy="292.37" r="17.33"/><circle class="cls-4" cx="227.02" cy="287.18" r="5.19"/><path class="cls-3" d="M185.37,333.7a9.63,9.63,0,0,1-19.25,0H151.75a24,24,0,0,0,48,0Z"/><path class="cls-5" d="M175.75,343.33a9.62,9.62,0,0,0,9.63-9.62H166.12A9.62,9.62,0,0,0,175.75,343.33Z"/><circle class="cls-5" cx="97.12" cy="330.58" r="9.96"/><circle class="cls-5" cx="250.54" cy="330.58" r="9.96"/></g></g></g></svg>