<svg xmlns="http://www.w3.org/2000/svg" viewBox="0 0 38.53 31.09"><defs><style>.cls-1{fill:#f73939;}.cls-2{fill:#fff;stroke:#f73939;stroke-miterlimit:10;}</style></defs><title>hook</title><g id="Layer_2" data-name="Layer 2"><g id="iphone_4" data-name="iphone 4"><path class="cls-1" d="M3.14,30.58l0,0h0A5.53,5.53,0,0,1,.54,23.22L2.05,20a.7.7,0,0,1,.23-.29.73.73,0,0,1,1,.18L5.81,23.5a.76.76,0,0,1,0,.84.72.72,0,0,1-.91.26h0L2.13,23.26h0l-.27.57a4.09,4.09,0,0,0,1.89,5.43,4.06,4.06,0,0,0,5.36-2l7-14.81a.72.72,0,0,1,1-.34h0a.72.72,0,0,1,.34,1l-7,14.81A5.5,5.5,0,0,1,3.16,30.6Z"/><path class="cls-1" d="M17.76,10.4a.7.7,0,0,1-.36-.93c1.23-2.67,2.8-4.23,4.66-4.66s3.59.49,5.15,1.4c1.39.81,2.71,1.57,4.18,1.31,1.67-.29,3.19-1.82,4.56-4.59a.7.7,0,0,1,.95-.31h0a.7.7,0,0,1,.34.94c-1.58,3.21-3.46,5-5.61,5.39-2,.35-3.67-.63-5.16-1.49s-2.69-1.56-4.11-1.24-2.63,1.6-3.67,3.84a.69.69,0,0,1-.94.32Z"/><circle class="cls-1" cx="37.82" cy="0.72" r="0.72" transform="translate(20.92 34.56) rotate(-64.55)"/><circle class="cls-2" cx="14.08" cy="18.04" r="2.56"/></g></g></svg>