<svg xmlns="http://www.w3.org/2000/svg" viewBox="0 0 900 900"><defs><style>.cls-1{fill:#d12a2a}.cls-2{fill:#f73939}.cls-3{fill:#333}.cls-4{fill:#d6d6d6}.cls-5{fill:#fff}</style></defs><title>logo</title><g id="redbeak_main_expanded" data-name="redbeak_main expanded"><path class="cls-1" d="M457.55 74.74l-5.31 1.46-5.31-1.46c-18.27-5-33.88-7.54-46.35-7.54-14.81 0-25.19 3.54-30.32 10.58-6.4 8.78-16.67 39.21 26.07 131.92 18.39 39.89 40.64 78.15 55.91 103 15.27-24.83 37.52-63.09 55.91-103C550.9 117 540.62 86.56 534.22 77.78c-9.45-12.97-36.68-14.05-76.67-3.04z"/><path class="cls-2" d="M457.55 104.74l-5.31 1.46-5.31-1.46c-18.27-5-33.88-7.54-46.35-7.54-14.81 0-25.19 3.54-30.32 10.58-6.4 8.78-16.67 39.21 26.07 131.92 18.39 39.89 40.64 78.15 55.91 103 15.27-24.83 37.52-63.09 55.91-103 42.74-92.7 32.47-123.13 26.07-131.92-9.45-12.97-36.68-14.05-76.67-3.04z"/><path class="cls-3" d="M566.55 54.22C556 39.7 540 30.94 519.08 28.16c-18.35-2.43-40.25-.28-66.84 6.59-26.59-6.87-48.5-9-66.84-6.59-20.91 2.77-36.88 11.54-47.46 26.06C314.3 86.65 321.52 143 360 226.45c25.34 55 57.56 106.73 70.83 127.32l.83 62.71 20.58-30.62 20.58 30.61.83-62.71c13.27-20.59 45.49-72.36 70.83-127.32C583 143 590.18 86.65 566.55 54.22zm-58.4 155.48c-18.39 39.89-40.64 78.15-55.91 103-15.27-24.83-37.52-63.09-55.91-103-42.74-92.7-32.47-123.14-26.07-131.92 5.13-7 15.51-10.58 30.32-10.58 12.47 0 28.08 2.5 46.35 7.54l5.31 1.46 5.31-1.46c40-11 67.22-9.92 76.67 3 6.4 8.82 16.68 39.26-26.07 131.96z"/><path class="cls-4" d="M450 309.48c-128.27 0-232.63 93.93-232.63 209.39S321.73 728.26 450 728.26s232.63-93.93 232.63-209.39S578.27 309.48 450 309.48z"/><path class="cls-5" d="M450 344.48c-128.27 0-232.63 93.93-232.63 209.39S321.73 763.26 450 763.26s232.63-93.93 232.63-209.39S578.27 344.48 450 344.48z"/><path class="cls-3" d="M642.08 341.86c-51.4-46.68-119.62-72.38-192.08-72.38s-140.68 25.71-192.08 72.38c-51.94 47.16-80.55 110-80.55 177s28.61 129.85 80.55 177c51.4 46.68 119.62 72.38 192.08 72.38s140.68-25.71 192.08-72.38c51.94-47.16 80.55-110 80.55-177S694 389 642.08 341.86zM450 728.26c-128.27 0-232.63-93.93-232.63-209.39S321.73 309.48 450 309.48s232.63 93.93 232.63 209.39S578.27 728.26 450 728.26z"/><path class="cls-1" d="M528.07 571.83c-30.94-25.47-62.13-47.3-78.06-58.11-16 10.85-47.34 32.8-78.32 58.32-77.23 63.63-83.23 92-83.23 99.19s6 35.57 83.23 99.19C402.65 796 434 817.9 450 828.75c16-10.85 47.35-32.8 78.32-58.32 77.23-63.63 83.23-92 83.23-99.19s-6.02-35.63-83.48-99.41z"/><path class="cls-2" d="M528.07 606.83c-30.94-25.47-62.13-47.3-78.06-58.11-16 10.85-47.34 32.8-78.32 58.32-77.23 63.63-83.23 92-83.23 99.19s6 35.57 83.23 99.19C402.65 831 434 852.9 450 863.75c16-10.85 47.35-32.8 78.32-58.32 77.23-63.63 83.23-92 83.23-99.19s-6.02-35.63-83.48-99.41z"/><path class="cls-3" d="M618.43 602.84c-15.83-18.62-37.68-39.44-64.94-61.84a1118.91 1118.91 0 0 0-92.63-68.06l-10.86-7-10.86 7A1118.91 1118.91 0 0 0 346.51 541c-27.27 22.45-49.11 43.27-64.94 61.89-22.29 26.23-33.13 48.61-33.13 68.4s10.84 42.17 33.13 68.4c15.82 18.62 37.67 39.44 64.94 61.89a1118.73 1118.73 0 0 0 92.63 68.06l10.86 7 10.86-7a1118.73 1118.73 0 0 0 92.63-68.06c27.27-22.45 49.11-43.27 64.94-61.89 22.29-26.23 33.13-48.61 33.13-68.4s-10.84-42.22-33.13-68.45zm-90.1 167.59C497.35 796 466 817.9 450 828.75c-16-10.85-47.35-32.8-78.32-58.32-77.23-63.63-83.23-92-83.23-99.19s6-35.57 83.23-99.19c31-25.52 62.33-47.47 78.32-58.32 15.93 10.81 47.12 32.64 78.06 58.11 77.47 63.77 83.49 92.21 83.49 99.41s-6 35.55-83.23 99.18z"/><circle class="cls-3" cx="349.72" cy="426.93" r="36.57" id="left_eye"/><circle class="cls-3" cx="550.28" cy="426.93" r="36.57" id="right_eye"/></g></svg>