<svg xmlns="http://www.w3.org/2000/svg" viewBox="0 0 400 71"><defs><style>.cls-1{fill:#ffcb31;}.cls-2{fill:#bf350c;}.cls-3{fill:#603d17;}</style></defs><title>mid</title><g id="Layer_2" data-name="Layer 2"><g id="iphone_4" data-name="iphone 4"><path class="cls-1" d="M395.07,54a63.59,63.59,0,0,1-5.41,6.81,35,35,0,0,1-25,10.19H35.29A35.78,35.78,0,0,1,4.93,54Z"/><path class="cls-2" d="M395.31,18H4.82a2,2,0,0,1,.11-.2,37.14,37.14,0,0,1,5.41-7.21A35.36,35.36,0,0,1,35.29,0H364.71a35.53,35.53,0,0,1,30.36,17.58Z"/><path class="cls-3" d="M400,35.86c0,6.59-1.8,12.14-4.93,18.14H4.93C1.8,48,0,42.45,0,35.86A35.33,35.33,0,0,1,4.82,18H395.31A36.19,36.19,0,0,1,400,35.86Z"/></g></g></svg>