<svg xmlns="http://www.w3.org/2000/svg" viewBox="0 0 400 71"><defs><style>.cls-1{fill:#ffa33e;}.cls-2{fill:#ffb565;}.cls-3{fill:#fdf1e3;}</style></defs><title>top-bun</title><g id="Layer_2" data-name="Layer 2"><g id="iphone_4" data-name="iphone 4"><path class="cls-1" d="M400,35.43a35.27,35.27,0,0,1-4.45,17.21C341.72,37.29,273.81,28.18,200,28.18S58.28,37.34,4.45,52.69A35,35,0,0,1,0,35.55,35.53,35.53,0,0,1,35.29,0H364.71A35.4,35.4,0,0,1,400,35.43Z"/><path class="cls-2" d="M395.55,52.71A35.27,35.27,0,0,1,364.71,71H35.29A35.33,35.33,0,0,1,4.45,52.78C58.28,37.43,126.19,28.25,200,28.25S341.72,37.36,395.55,52.71Z"/><path class="cls-3" d="M25.3,20.84a5.47,5.47,0,1,1-8.41,7C15,25.5,13,19.34,15.35,17.41S23.37,18.52,25.3,20.84Z"/><path class="cls-3" d="M104,27.31A5.47,5.47,0,1,1,94.46,22c1.46-2.64,6.5-6.69,9.14-5.22S105.49,24.66,104,27.31Z"/><path class="cls-3" d="M149.68,5.53a5.47,5.47,0,0,1-3.4,10.39c-2.87-.94-7.79-5.12-6.85-8S146.81,4.6,149.68,5.53Z"/><path class="cls-3" d="M188.55,23.1A5.47,5.47,0,1,1,178.39,19c1.12-2.8,5.61-7.44,8.42-6.32S189.67,20.29,188.55,23.1Z"/><path class="cls-3" d="M237.46,18a5.47,5.47,0,1,1-9.1-6.06c1.67-2.51,7-6.13,9.54-4.45S239.14,15.5,237.46,18Z"/><path class="cls-3" d="M340.35,28.71a5.47,5.47,0,1,1-10.9-.84c.23-3,3.13-8.78,6.14-8.55S340.58,25.7,340.35,28.71Z"/><path class="cls-3" d="M363.79,10.81a5.47,5.47,0,1,1-9.17,6c-1.65-2.53-2.85-8.88-.32-10.52S362.14,8.27,363.79,10.81Z"/><path class="cls-3" d="M375.82,40.82a5.47,5.47,0,0,1-5-9.73c2.69-1.38,9.12-1.93,10.5.76S378.51,39.45,375.82,40.82Z"/><path class="cls-3" d="M305.43,9.28a5.47,5.47,0,1,1,10.42,3.33c-.92,2.88-5.07,7.82-7.94,6.91S304.51,12.15,305.43,9.28Z"/><path class="cls-3" d="M45.26,28.93a5.47,5.47,0,0,1,9.58,5.28c-1.46,2.64-6.49,6.7-9.13,5.24S43.8,31.58,45.26,28.93Z"/><path class="cls-3" d="M64.36,11a5.47,5.47,0,0,1,10.91-.8c.22,3-1.78,9.15-4.79,9.37S64.59,14,64.36,11Z"/><path class="cls-3" d="M274,28.2a5.47,5.47,0,0,1,4.15-10.12c2.79,1.15,7.39,5.68,6.24,8.47S276.78,29.35,274,28.2Z"/></g></g></svg>